<svg width="1038" height="1212" version="1.1" xmlns="http://www.w3.org/2000/svg" desc="Created with imagetracer.js version 1.2.6" ><path fill="rgb(139,123,115)" stroke="rgb(139,123,115)" stroke-width="1" opacity="0.6745098039215687" d="M 292.5 269 L 299 269.5 L 292.5 270 L 292.5 269 Z " /><path fill="rgb(139,123,115)" stroke="rgb(139,123,115)" stroke-width="1" opacity="0.6745098039215687" d="M 304.5 269 L 308 269.5 L 304.5 270 L 304.5 269 Z " /><path fill="rgb(139,123,115)" stroke="rgb(139,123,115)" stroke-width="1" opacity="0.6745098039215687" d="M 486.5 269 L 490 269.5 L 486.5 270 L 486.5 269 Z " /><path fill="rgb(139,123,115)" stroke="rgb(139,123,115)" stroke-width="1" opacity="0.6745098039215687" d="M 498.5 269 L 504 269.5 L 498.5 270 L 498.5 269 Z " /><path fill="rgb(139,123,115)" stroke="rgb(139,123,115)" stroke-width="1" opacity="0.6745098039215687" d="M 285.5 270 L 291 270.5 L 285.5 271 L 285.5 270 Z " /><path fill="rgb(139,123,115)" stroke="rgb(139,123,115)" stroke-width="1" opacity="0.6745098039215687" d="M 310.5 270 L 315 270.5 L 310.5 271 L 310.5 270 Z " /><path fill="rgb(139,123,115)" stroke="rgb(139,123,115)" stroke-width="1" opacity="0.6745098039215687" d="M 479.5 270 L 485 270.5 L 479.5 271 L 479.5 270 Z " /><path fill="rgb(139,123,115)" stroke="rgb(139,123,115)" stroke-width="1" opacity="0.6745098039215687" d="M 506.5 270 L 510 270.5 L 506.5 271 L 506.5 270 Z " /><path fill="rgb(139,123,115)" stroke="rgb(139,123,115)" stroke-width="1" opacity="0.6745098039215687" d="M 281.5 271 L 284 271.5 L 279.5 273 L 279.5 272 L 281.5 271 Z " /><path fill="rgb(139,123,115)" stroke="rgb(139,123,115)" stroke-width="1" opacity="0.6745098039215687" d="M 316.5 271 L 321 272.5 L 319.5 273 L 316.5 272 L 316.5 271 Z " /><path fill="rgb(139,123,115)" stroke="rgb(139,123,115)" stroke-width="1" opacity="0.6745098039215687" d="M 475.5 271 L 477 271.5 L 461.5 279 L 461.5 278 L 475.5 271 Z " /><path fill="rgb(139,123,115)" stroke="rgb(139,123,115)" stroke-width="1" opacity="0.6745098039215687" d="M 511.5 271 Q 523.2 273.8 531 280.5 L 528.5 279 L 511.5 272 L 511.5 271 Z " /><path fill="rgb(139,123,115)" stroke="rgb(139,123,115)" stroke-width="1" opacity="0.6745098039215687" d="M 275.5 273 L 278 273.5 L 275.5 274 L 275.5 273 Z " /><path fill="rgb(139,123,115)" stroke="rgb(139,123,115)" stroke-width="1" opacity="0.6745098039215687" d="M 272.5 274 L 274 274.5 L 271.5 276 L 272.5 274 Z " /><path fill="rgb(139,123,115)" stroke="rgb(139,123,115)" stroke-width="1" opacity="0.6745098039215687" d="M 325.5 274 L 328 275.5 L 326.5 276 L 325.5 274 Z " /><path fill="rgb(139,123,115)" stroke="rgb(139,123,115)" stroke-width="1" opacity="0.6745098039215687" d="M 269.5 276 L 267.5 279 Q 256.8 283.3 251 292.5 L 249.5 295 L 250 293.5 L 255 286 L 269.5 276 Z " /><path fill="rgb(139,123,115)" stroke="rgb(139,123,115)" stroke-width="1" opacity="0.6745098039215687" d="M 329.5 276 Q 346.2 285.8 358 300.5 L 357.5 302 L 342.5 286 L 330.5 278 L 329.5 276 Z " /><path fill="rgb(139,123,115)" stroke="rgb(139,123,115)" stroke-width="1" opacity="0.6745098039215687" d="M 459.5 279 L 455.5 284 L 425.5 313 L 454.5 283 L 459.5 279 Z " /><path fill="rgb(139,123,115)" stroke="rgb(139,123,115)" stroke-width="1" opacity="0.6745098039215687" d="M 532.5 281 L 544 291.5 Q 551.1 299.4 554 311.5 L 553 311.5 Q 548.9 295.1 537.5 286 L 532.5 281 Z " /><path fill="rgb(139,123,115)" stroke="rgb(139,123,115)" stroke-width="1" opacity="0.6745098039215687" d="M 248.5 296 L 246.5 299 L 248.5 296 Z " /><path fill="rgb(139,123,115)" stroke="rgb(139,123,115)" stroke-width="1" opacity="0.6745098039215687" d="M 245.5 300 L 244.5 302 L 245.5 300 Z " /><path fill="rgb(139,123,115)" stroke="rgb(139,123,115)" stroke-width="1" opacity="0.6745098039215687" d="M 359.5 302 L 396.5 339 L 398.5 339 L 403 335.5 L 398.5 340 L 396.5 340 L 379 323.5 L 359.5 302 Z " /><path fill="rgb(139,123,115)" stroke="rgb(139,123,115)" stroke-width="1" opacity="0.6745098039215687" d="M 242.5 306 L 243 307.5 L 241.5 310 L 241 308.5 L 242.5 306 Z " /><path fill="rgb(139,123,115)" stroke="rgb(139,123,115)" stroke-width="1" opacity="0.6745098039215687" d="M 294.5 310 L 300 310.5 Q 288.2 311.2 283 318.5 L 280 323.5 L 278.5 331 L 278 328.5 Q 280.1 318.1 287.5 313 L 294.5 310 Z " /><path fill="rgb(139,123,115)" stroke="rgb(139,123,115)" stroke-width="1" opacity="0.6745098039215687" d="M 302.5 310 L 307 311.5 L 305.5 312 L 302.5 311 L 302.5 310 Z " /><path fill="rgb(139,123,115)" stroke="rgb(139,123,115)" stroke-width="1" opacity="0.6745098039215687" d="M 490.5 310 L 494 310.5 L 487.5 312 L 487.5 311 L 490.5 310 Z " /><path fill="rgb(139,123,115)" stroke="rgb(139,123,115)" stroke-width="1" opacity="0.6745098039215687" d="M 496.5 310 L 503 311.5 L 500.5 312 L 496.5 311 L 496.5 310 Z " /><path fill="rgb(139,123,115)" stroke="rgb(139,123,115)" stroke-width="1" opacity="0.6745098039215687" d="M 240.5 311 L 241 313.5 L 240 313.5 L 240.5 311 Z " /><path fill="rgb(139,123,115)" stroke="rgb(139,123,115)" stroke-width="1" opacity="0.6745098039215687" d="M 308.5 312 L 311.5 313 L 344.5 346 L 346 346 Q 347.5 349.7 344.5 349 L 341.5 350 L 341.5 349 L 345 347.5 L 311.5 314 L 308.5 313 L 308.5 312 Z " /><path fill="rgb(139,123,115)" stroke="rgb(139,123,115)" stroke-width="1" opacity="0.6745098039215687" d="M 484.5 312 L 486 312.5 L 480 316.5 L 478.5 319 L 473 323.5 L 469.5 328 L 458 338.5 L 456.5 341 L 457 339.5 L 470.5 325 Q 472.8 325.8 472 323.5 L 484.5 312 Z " /><path fill="rgb(139,123,115)" stroke="rgb(139,123,115)" stroke-width="1" opacity="0.6745098039215687" d="M 504.5 312 L 512 318.5 L 506.5 314 L 504.5 312 Z " /><path fill="rgb(139,123,115)" stroke="rgb(139,123,115)" stroke-width="1" opacity="0.6745098039215687" d="M 423.5 313 L 424 314.5 L 404 333.5 L 423.5 313 Z " /><path fill="rgb(139,123,115)" stroke="rgb(139,123,115)" stroke-width="1" opacity="0.6745098039215687" d="M 554.5 313 L 556 318.5 L 555 318.5 L 554.5 313 Z " /><path fill="rgb(139,123,115)" stroke="rgb(139,123,115)" stroke-width="1" opacity="0.6745098039215687" d="M 239.5 315 L 240 317.5 L 238.5 322 L 238 318.5 L 239.5 315 Z " /><path fill="rgb(139,123,115)" stroke="rgb(139,123,115)" stroke-width="1" opacity="0.6745098039215687" d="M 512.5 320 L 515 324.5 L 514 324.5 L 512.5 320 Z " /><path fill="rgb(139,123,115)" stroke="rgb(139,123,115)" stroke-width="1" opacity="0.6745098039215687" d="M 556.5 320 L 557 325.5 L 556 325.5 L 556.5 320 Z " /><path fill="rgb(139,123,115)" stroke="rgb(139,123,115)" stroke-width="1" opacity="0.6745098039215687" d="M 237.5 324 L 238 328.5 L 237 328.5 L 237.5 324 Z " /><path fill="rgb(139,123,115)" stroke="rgb(139,123,115)" stroke-width="1" opacity="0.6745098039215687" d="M 515.5 326 L 516 330.5 L 515 330.5 L 515.5 326 Z " /><path fill="rgb(139,123,115)" stroke="rgb(139,123,115)" stroke-width="1" opacity="0.6745098039215687" d="M 557.5 327 L 558 330.5 L 557 330.5 L 557.5 327 Z " /><path fill="rgb(139,123,115)" stroke="rgb(139,123,115)" stroke-width="1" opacity="0.6745098039215687" d="M 236.5 331 L 237 333.5 L 236 333.5 L 236.5 331 Z " /><path fill="rgb(139,123,115)" stroke="rgb(139,123,115)" stroke-width="1" opacity="0.6745098039215687" d="M 516.5 332 L 517 335.5 L 516 335.5 L 516.5 332 Z " /><path fill="rgb(139,123,115)" stroke="rgb(139,123,115)" stroke-width="1" opacity="0.6745098039215687" d="M 558.5 332 L 559 335.5 L 558 335.5 L 558.5 332 Z " /><path fill="rgb(139,123,115)" stroke="rgb(139,123,115)" stroke-width="1" opacity="0.6745098039215687" d="M 277.5 333 L 278 336.5 L 277 336.5 L 277.5 333 Z " /><path fill="rgb(139,123,115)" stroke="rgb(139,123,115)" stroke-width="1" opacity="0.6745098039215687" d="M 235.5 336 L 236 340.5 L 235 340.5 L 235.5 336 Z " /><path fill="rgb(139,123,115)" stroke="rgb(139,123,115)" stroke-width="1" opacity="0.6745098039215687" d="M 517.5 337 L 518 341.5 L 517 341.5 L 517.5 337 Z " /><path fill="rgb(139,123,115)" stroke="rgb(139,123,115)" stroke-width="1" opacity="0.6745098039215687" d="M 559.5 339 L 560 343.5 L 559 343.5 L 559.5 339 Z " /><path fill="rgb(139,123,115)" stroke="rgb(139,123,115)" stroke-width="1" opacity="0.6745098039215687" d="M 276.5 340 L 277 344.5 L 276 348 L 278 348.5 L 276.5 349 L 275 345.5 L 276.5 340 Z " /><path fill="rgb(139,123,115)" stroke="rgb(139,123,115)" stroke-width="1" opacity="0.6745098039215687" d="M 454.5 342 L 451.5 346 Q 448.9 345.2 450 348.5 L 449 348.5 L 450.5 345 L 454.5 342 Z " /><path fill="rgb(139,123,115)" stroke="rgb(139,123,115)" stroke-width="1" opacity="0.6745098039215687" d="M 234.5 343 L 235 346.5 L 234 349 L 232 348.5 Q 234.8 347.3 234.5 343 Z " /><path fill="rgb(139,123,115)" stroke="rgb(139,123,115)" stroke-width="1" opacity="0.6745098039215687" d="M 518.5 344 L 519 347.5 L 517 348.5 L 518.5 344 Z " /><path fill="rgb(139,123,115)" stroke="rgb(139,123,115)" stroke-width="1" opacity="0.6745098039215687" d="M 560.5 345 L 562 348.5 L 560 347.5 L 560.5 345 Z " /><path fill="rgb(139,123,115)" stroke="rgb(139,123,115)" stroke-width="1" opacity="0.6745098039215687" d="M 222.5 349 L 231 349.5 L 222.5 350 L 222.5 349 Z " /><path fill="rgb(139,123,115)" stroke="rgb(139,123,115)" stroke-width="1" opacity="0.6745098039215687" d="M 564.5 349 Q 572.9 347.6 577 350.5 L 574.5 351 L 573.5 350 L 564.5 350 L 564.5 349 Z " /><path fill="rgb(139,123,115)" stroke="rgb(139,123,115)" stroke-width="1" opacity="0.6745098039215687" d="M 217.5 350 L 220 350.5 L 213.5 352 L 213.5 351 L 217.5 350 Z " /><path fill="rgb(139,123,115)" stroke="rgb(139,123,115)" stroke-width="1" opacity="0.6745098039215687" d="M 578.5 351 L 583 351.5 L 578.5 352 L 578.5 351 Z " /><path fill="rgb(139,123,115)" stroke="rgb(139,123,115)" stroke-width="1" opacity="0.6745098039215687" d="M 209.5 352 L 211 352.5 L 207.5 354 L 207.5 353 L 209.5 352 Z " /><path fill="rgb(139,123,115)" stroke="rgb(139,123,115)" stroke-width="1" opacity="0.6745098039215687" d="M 584.5 352 L 587 353.5 L 585.5 353 L 584.5 352 Z " /><path fill="rgb(139,123,115)" stroke="rgb(139,123,115)" stroke-width="1" opacity="0.6745098039215687" d="M 204.5 354 L 206 354.5 L 203.5 356 L 204.5 354 Z " /><path fill="rgb(139,123,115)" stroke="rgb(139,123,115)" stroke-width="1" opacity="0.6745098039215687" d="M 588.5 354 L 594 356.5 L 592.5 356 L 588.5 355 L 588.5 354 Z " /><path fill="rgb(139,123,115)" stroke="rgb(139,123,115)" stroke-width="1" opacity="0.6745098039215687" d="M 200.5 356 L 202 356.5 L 188 365 L 184.5 370 Q 182.3 369.3 183 371.5 L 178.5 377 L 180 374.5 L 188.5 364 L 200.5 356 Z " /><path fill="rgb(139,123,115)" stroke="rgb(139,123,115)" stroke-width="1" opacity="0.6745098039215687" d="M 595.5 357 L 599 359.5 L 597.5 359 L 595.5 357 Z " /><path fill="rgb(139,123,115)" stroke="rgb(139,123,115)" stroke-width="1" opacity="0.6745098039215687" d="M 600.5 360 L 614 372.5 L 619 380.5 L 617 379.5 Q 612.4 370.1 604.5 364 L 600.5 360 Z " /><path fill="rgb(139,123,115)" stroke="rgb(139,123,115)" stroke-width="1" opacity="0.6745098039215687" d="M 177.5 378 L 176.5 380 L 177.5 378 Z " /><path fill="rgb(139,123,115)" stroke="rgb(139,123,115)" stroke-width="1" opacity="0.6745098039215687" d="M 619.5 382 L 621 384.5 L 619 383.5 L 619.5 382 Z " /><path fill="rgb(139,123,115)" stroke="rgb(139,123,115)" stroke-width="1" opacity="0.6745098039215687" d="M 174.5 383 L 174 384.5 L 173.5 386 L 173 384.5 L 174.5 383 Z " /><path fill="rgb(139,123,115)" stroke="rgb(139,123,115)" stroke-width="1" opacity="0.6745098039215687" d="M 621.5 386 L 624 391.5 L 623 391.5 L 621.5 386 Z " /><path fill="rgb(139,123,115)" stroke="rgb(139,123,115)" stroke-width="1" opacity="0.6745098039215687" d="M 171.5 390 L 171 391.5 L 170.5 395 L 170 391.5 L 171.5 390 Z " /><path fill="rgb(139,123,115)" stroke="rgb(139,123,115)" stroke-width="1" opacity="0.6745098039215687" d="M 225.5 390 L 375 390.5 L 225.5 391 L 215 396 L 209.5 408 L 209 405.5 L 215.5 395 L 225.5 390 Z " /><path fill="rgb(139,123,115)" stroke="rgb(139,123,115)" stroke-width="1" opacity="0.6745098039215687" d="M 419.5 390 L 569 390.5 L 419.5 391 L 418.5 392 L 419.5 390 Z " /><path fill="rgb(139,123,115)" stroke="rgb(139,123,115)" stroke-width="1" opacity="0.6745098039215687" d="M 376.5 391 L 377 473.5 L 375.5 475 L 210.5 475 L 209.5 473 L 210.5 474 L 376 474 L 376.5 391 Z " /><path fill="rgb(139,123,115)" stroke="rgb(139,123,115)" stroke-width="1" opacity="0.6745098039215687" d="M 570.5 391 Q 578.1 392.8 582 398.5 L 585 405.5 L 584 405.5 Q 583.1 398.9 578.5 396 L 570.5 392 L 570.5 391 Z " /><path fill="rgb(139,123,115)" stroke="rgb(139,123,115)" stroke-width="1" opacity="0.6745098039215687" d="M 624.5 393 L 625 396.5 L 624 396.5 L 624.5 393 Z " /><path fill="rgb(139,123,115)" stroke="rgb(139,123,115)" stroke-width="1" opacity="0.6745098039215687" d="M 169.5 396 L 170 399.5 L 168.5 404 L 168 400.5 L 169.5 396 Z " /><path fill="rgb(139,123,115)" stroke="rgb(139,123,115)" stroke-width="1" opacity="0.6745098039215687" d="M 625.5 398 L 627 407.5 L 626 407.5 L 625.5 398 Z " /><path fill="rgb(139,123,115)" stroke="rgb(139,123,115)" stroke-width="1" opacity="0.6745098039215687" d="M 167.5 405 L 168 480.5 L 167 480.5 L 167.5 405 Z " /><path fill="rgb(139,123,115)" stroke="rgb(139,123,115)" stroke-width="1" opacity="0.6745098039215687" d="M 585.5 407 L 586 473.5 L 584.5 475 L 419.5 475 L 418.5 473 L 419.5 474 L 585 474 L 585.5 407 Z " /><path fill="rgb(139,123,115)" stroke="rgb(139,123,115)" stroke-width="1" opacity="0.6745098039215687" d="M 626.5 475 L 627 482.5 L 624.5 489 L 624 486.5 Q 627.1 482.6 626.5 475 Z " /><path fill="rgb(139,123,115)" stroke="rgb(139,123,115)" stroke-width="1" opacity="0.6745098039215687" d="M 170.5 488 L 172 491.5 L 171 491.5 L 170.5 488 Z " /><path fill="rgb(139,123,115)" stroke="rgb(139,123,115)" stroke-width="1" opacity="0.6745098039215687" d="M 623.5 490 L 624 491.5 Q 618.9 502.4 609.5 509 L 607 510.5 L 606.5 512 L 606 510.5 L 619 498.5 L 623.5 490 Z " /><path fill="rgb(139,123,115)" stroke="rgb(139,123,115)" stroke-width="1" opacity="0.6745098039215687" d="M 172.5 493 L 176 499.5 L 175 499.5 L 172 494.5 L 172.5 493 Z " /><path fill="rgb(139,123,115)" stroke="rgb(139,123,115)" stroke-width="1" opacity="0.6745098039215687" d="M 177.5 500 L 184 507.5 L 178 502.5 L 177.5 500 Z " /><path fill="rgb(139,123,115)" stroke="rgb(139,123,115)" stroke-width="1" opacity="0.6745098039215687" d="M 185.5 508 L 188 509.5 L 189 511.5 L 189 668.5 L 188 668.5 L 188 511.5 L 185.5 508 Z " /><path fill="rgb(139,123,115)" stroke="rgb(139,123,115)" stroke-width="1" opacity="0.6745098039215687" d="M 375.5 516 L 377 517.5 L 377 682.5 L 375.5 684 L 247.5 684 L 247.5 683 L 376 683 L 376 517.5 L 375.5 516 Z " /><path fill="rgb(139,123,115)" stroke="rgb(139,123,115)" stroke-width="1" opacity="0.6745098039215687" d="M 563.5 516 L 565 517.5 L 565 667.5 L 562.5 672 L 562 670.5 L 564 667.5 L 564 517.5 L 563.5 516 Z " /><path fill="rgb(139,123,115)" stroke="rgb(139,123,115)" stroke-width="1" opacity="0.6745098039215687" d="M 605.5 667 L 606 672.5 L 603.5 682 L 603 677.5 L 605.5 667 Z " /><path fill="rgb(139,123,115)" stroke="rgb(139,123,115)" stroke-width="1" opacity="0.6745098039215687" d="M 231.5 670 L 236 678 L 241 680.5 L 239.5 681 L 235 677.5 L 231 671.5 L 231.5 670 Z " /><path fill="rgb(139,123,115)" stroke="rgb(139,123,115)" stroke-width="1" opacity="0.6745098039215687" d="M 189.5 671 L 191 677.5 L 190 677.5 L 189.5 671 Z " /><path fill="rgb(139,123,115)" stroke="rgb(139,123,115)" stroke-width="1" opacity="0.6745098039215687" d="M 561.5 673 L 560.5 675 L 561.5 673 Z " /><path fill="rgb(139,123,115)" stroke="rgb(139,123,115)" stroke-width="1" opacity="0.6745098039215687" d="M 559.5 676 L 557.5 679 L 559.5 676 Z " /><path fill="rgb(139,123,115)" stroke="rgb(139,123,115)" stroke-width="1" opacity="0.6745098039215687" d="M 191.5 679 Q 193.4 689.1 199 695.5 L 196 693.5 L 191 682.5 L 191.5 679 Z " /><path fill="rgb(139,123,115)" stroke="rgb(139,123,115)" stroke-width="1" opacity="0.6745098039215687" d="M 555.5 679 L 553.5 682 L 548.5 684 L 419.5 684 L 418.5 682 L 419.5 683 L 548.5 683 L 555.5 679 Z " /><path fill="rgb(139,123,115)" stroke="rgb(139,123,115)" stroke-width="1" opacity="0.6745098039215687" d="M 242.5 681 L 246 682.5 L 243.5 683 L 242.5 681 Z " /><path fill="rgb(139,123,115)" stroke="rgb(139,123,115)" stroke-width="1" opacity="0.6745098039215687" d="M 602.5 683 L 602 684.5 L 601.5 686 L 601 684.5 L 602.5 683 Z " /><path fill="rgb(139,123,115)" stroke="rgb(139,123,115)" stroke-width="1" opacity="0.6745098039215687" d="M 600.5 687 L 601 689.5 L 595.5 697 L 597 694.5 L 600.5 687 Z " /><path fill="rgb(139,123,115)" stroke="rgb(139,123,115)" stroke-width="1" opacity="0.6745098039215687" d="M 199.5 697 L 200.5 699 L 199.5 697 Z " /><path fill="rgb(139,123,115)" stroke="rgb(139,123,115)" stroke-width="1" opacity="0.6745098039215687" d="M 594.5 698 L 593 700.5 L 582.5 712 L 574.5 717 L 575.5 715 Q 585.8 710.3 592 701.5 L 594.5 698 Z " /><path fill="rgb(139,123,115)" stroke="rgb(139,123,115)" stroke-width="1" opacity="0.6745098039215687" d="M 201.5 700 L 205.5 705 L 209 707.5 Q 208.3 709.8 210.5 709 L 217 714.5 L 215.5 714 L 202 702.5 L 201.5 700 Z " /><path fill="rgb(139,123,115)" stroke="rgb(139,123,115)" stroke-width="1" opacity="0.6745098039215687" d="M 218.5 715 L 219.5 717 L 218.5 715 Z " /><path fill="rgb(139,123,115)" stroke="rgb(139,123,115)" stroke-width="1" opacity="0.6745098039215687" d="M 570.5 718 L 569.5 720 L 562.5 723 L 558.5 723 L 558.5 722 L 562.5 722 L 570.5 718 Z " /><path fill="rgb(139,123,115)" stroke="rgb(139,123,115)" stroke-width="1" opacity="0.6745098039215687" d="M 225.5 719 L 231 721.5 L 229.5 722 L 225.5 720 L 225.5 719 Z " /><path fill="rgb(139,123,115)" stroke="rgb(139,123,115)" stroke-width="1" opacity="0.6745098039215687" d="M 232.5 722 L 236 722.5 L 232.5 723 L 232.5 722 Z " /><path fill="rgb(139,123,115)" stroke="rgb(139,123,115)" stroke-width="1" opacity="0.6745098039215687" d="M 237.5 723 L 240 723.5 L 237.5 724 L 237.5 723 Z " /><path fill="rgb(139,123,115)" stroke="rgb(139,123,115)" stroke-width="1" opacity="0.6745098039215687" d="M 554.5 723 L 557 723.5 L 554.5 724 L 554.5 723 Z " /><path fill="rgb(139,123,115)" stroke="rgb(139,123,115)" stroke-width="1" opacity="0.6745098039215687" d="M 241.5 724 L 248 724.5 L 241.5 725 L 241.5 724 Z " /><path fill="rgb(139,123,115)" stroke="rgb(139,123,115)" stroke-width="1" opacity="0.6745098039215687" d="M 544.5 724 L 553 724.5 L 544.5 725 L 544.5 724 Z " /><path fill="rgb(154,117,97)" stroke="rgb(154,117,97)" stroke-width="1" opacity="1" d="M 299.5 269 L 315.5 271 L 328.5 276 Q 345 286 357 300.5 Q 356.3 302.8 358.5 302 L 382.5 327 L 396.5 340 L 398.5 340 L 403 334 L 404.5 334 L 424 314.5 Q 423.3 312.3 425.5 313 L 460.5 279 L 477.5 271 L 497.5 269 L 498.5 270 L 510.5 271 L 520.5 275 L 531.5 281 L 543 291.5 L 553 308.5 L 559 336.5 L 559 343.5 L 561.5 349 L 583.5 352 L 590.5 355 Q 603.6 360.9 612 371.5 L 619 381.5 L 624 392.5 L 627 408.5 L 627 474.5 Q 624.3 476.3 626 482.5 L 621 495.5 L 609.5 508 L 606 510.5 L 606 666.5 L 603 677.5 L 603 682.5 Q 599.8 684.3 600 689.5 Q 593.2 702.2 582.5 711 L 562.5 722 Q 556.4 721.4 553.5 724 L 544.5 724 L 543.5 725 L 248.5 725 L 231.5 722 L 220.5 717 L 209 709 L 206.5 705 L 203 702.5 L 194 687.5 L 189 670.5 L 189 511.5 L 186.5 508 L 184.5 508 L 179 502.5 L 177.5 500 Q 175.3 500.8 176 498.5 Q 170.3 491.7 168 481.5 L 168 404.5 L 173 386.5 L 183 370 L 188 366.5 Q 187.3 364.3 189.5 365 Q 198.4 356.4 211.5 352 L 234 349 L 238 328.5 L 238 322.5 L 244 302.5 Q 251.1 290.6 261.5 282 L 274.5 274 L 284.5 271 L 298.5 270 L 299.5 269 Z M 295 310 L 288 313 L 279 324 L 275 348 L 277 349 L 341 349 L 342 350 L 345 349 Q 347 350 346 346 L 345 346 L 312 313 L 305 310 L 295 310 Z M 491 310 Q 478 314 472 324 Q 473 326 471 325 L 457 340 L 451 345 L 449 349 L 452 350 L 453 349 L 518 349 L 519 348 L 516 327 L 512 319 Q 507 309 491 310 Z M 226 390 L 216 395 L 209 406 L 209 474 L 211 475 L 376 475 L 377 474 L 377 391 L 375 390 L 226 390 Z M 420 390 L 418 392 L 418 474 L 420 475 L 585 475 L 586 474 L 586 408 L 582 399 Q 577 392 569 390 L 420 390 Z M 230 516 L 230 669 L 235 678 Q 240 682 248 684 L 376 684 L 377 683 L 377 518 L 376 516 L 230 516 Z M 418 516 L 418 683 L 420 684 L 549 684 L 558 679 L 565 668 L 565 518 L 564 516 L 418 516 Z " /><path fill="rgb(0,0,0)" stroke="rgb(0,0,0)" stroke-width="1" opacity="0" d="M 0 0 L 1038 0 L 1038 1212 L 0 1212 L 0 0 Z M 293 269 L 273 274 L 255 286 L 244 302 L 241 309 L 238 319 L 234 347 L 232 349 L 223 349 L 210 352 L 199 357 L 189 364 Q 179 372 173 385 Q 173 390 170 392 L 167 406 L 167 481 L 172 495 L 175 499 Q 174 501 177 500 L 178 503 L 185 508 L 188 512 L 188 669 L 193 688 L 202 703 Q 216 720 242 725 L 553 725 Q 556 722 563 723 L 570 720 L 583 712 Q 594 703 601 690 L 606 673 L 606 513 L 607 511 L 610 509 Q 623 500 627 483 L 627 403 L 624 391 L 614 373 Q 605 361 591 354 L 574 349 L 563 349 L 560 345 L 557 321 L 554 313 L 554 309 L 544 292 Q 530 274 504 269 L 480 270 L 465 276 L 455 283 L 425 313 L 423 313 L 423 315 L 399 339 L 397 339 L 360 302 Q 357 303 358 301 L 337 280 L 324 273 L 308 269 L 293 269 Z " /><path fill="rgb(0,0,0)" stroke="rgb(0,0,0)" stroke-width="1" opacity="0" d="M 300.5 310 L 311.5 314 L 345 347.5 L 343.5 349 L 278.5 349 L 276 348 L 280 323.5 L 286.5 315 L 294.5 311 Q 299.3 312.3 300.5 310 Z " /><path fill="rgb(0,0,0)" stroke="rgb(0,0,0)" stroke-width="1" opacity="0" d="M 494.5 310 L 503.5 312 L 512 319.5 L 515 325.5 L 518 347.5 L 516.5 349 L 450 349 Q 448.5 345.3 451.5 346 L 455 341 L 458 339.5 L 468.5 328 L 473 324.5 L 477.5 319 L 480 317.5 L 481.5 315 L 486.5 312 L 494.5 310 Z " /><path fill="rgb(0,0,0)" stroke="rgb(0,0,0)" stroke-width="1" opacity="0" d="M 225.5 391 L 376 391 L 376 474 L 210.5 474 L 209 472.5 L 209 408.5 L 215 396 L 225.5 391 Z " /><path fill="rgb(0,0,0)" stroke="rgb(0,0,0)" stroke-width="1" opacity="0" d="M 419.5 391 L 569.5 391 L 580 397.5 L 585 406.5 L 585 474 L 419.5 474 L 418 472.5 L 418 392.5 L 419.5 391 Z " /><path fill="rgb(0,0,0)" stroke="rgb(0,0,0)" stroke-width="1" opacity="0" d="M 231.5 516 L 374.5 516 L 376 517.5 L 376 683 L 246.5 683 L 236 678 L 230 666.5 L 230 517.5 L 231.5 516 Z " /><path fill="rgb(0,0,0)" stroke="rgb(0,0,0)" stroke-width="1" opacity="0" d="M 419.5 516 L 562.5 516 L 564 517.5 L 564 667.5 Q 561.9 674.9 556.5 679 L 548.5 683 L 419.5 683 L 418 681.5 L 418 517.5 L 419.5 516 Z " /></svg>