<svg width="1038" height="1212" version="1.1" xmlns="http://www.w3.org/2000/svg" desc="Created with imagetracer.js version 1.2.6" ><path fill="rgb(0,0,0)" stroke="rgb(0,0,0)" stroke-width="1" opacity="0" d="M 0 0 L 1038 0 L 1038 1212 L 0 1212 L 0 0 Z M 517 492 L 507 494 L 501 497 L 395 574 L 391 578 L 391 592 L 399 597 L 408 596 L 422 586 L 422 699 Q 424 708 429 714 Q 437 722 451 725 L 588 725 L 596 723 L 605 718 Q 613 711 616 700 L 616 586 L 634 597 Q 641 598 644 595 L 647 592 L 647 578 L 538 497 Q 530 492 517 492 Z " /><path fill="rgb(0,0,0)" stroke="rgb(0,0,0)" stroke-width="1" opacity="0" d="M 516.5 517 Q 522.8 516.2 525.5 519 L 588.5 566 L 592 567 L 592 693.5 L 590 698 L 583.5 701 L 563 701 L 563 631.5 Q 560.1 617.9 550.5 611 L 541.5 606 L 536.5 605 L 500.5 605 Q 488.5 608 482 616.5 Q 476.9 622.4 475 631.5 L 475 701 L 454.5 701 L 447 695.5 L 446 693.5 L 446 568.5 L 516.5 517 Z " /><path fill="rgb(0,0,0)" stroke="rgb(0,0,0)" stroke-width="1" opacity="0" d="M 506.5 629 L 531.5 629 L 537 632.5 L 539 636.5 L 539 701 L 499 701 L 499 636.5 L 502.5 631 L 506.5 629 Z " /><path fill="rgb(161,127,109)" stroke="rgb(161,127,109)" stroke-width="1" opacity="0.9529411764705882" d="M 516.5 492 Q 529.6 491.9 537.5 497 L 647 577.5 L 647 591.5 L 643.5 595 Q 640.5 598 633.5 597 L 616 586 L 616 699.5 Q 612.9 711.4 604.5 718 L 595.5 723 L 587.5 725 L 450.5 725 Q 436.6 722.4 429 713.5 Q 423.7 707.8 422 698.5 L 422 586 L 407.5 596 L 398.5 597 L 391 591.5 L 391 577.5 L 394.5 574 L 500.5 497 L 506.5 494 L 516.5 492 Z M 517 517 L 446 569 L 446 694 L 447 696 L 455 701 L 475 701 L 475 632 Q 477 622 482 617 Q 489 608 501 605 L 537 605 L 542 606 L 551 611 Q 560 618 563 632 L 563 701 L 584 701 L 590 698 L 592 694 L 592 567 L 589 566 L 526 519 Q 523 516 517 517 Z M 507 629 L 503 631 L 499 637 L 499 701 L 539 701 L 539 637 L 537 633 L 532 629 L 507 629 Z " /></svg>