<svg width="1038" height="1212" version="1.1" xmlns="http://www.w3.org/2000/svg" desc="Created with imagetracer.js version 1.2.6" ><path fill="rgb(156,121,102)" stroke="rgb(156,121,102)" stroke-width="1" opacity="0.9450980392156862" d="M 249.5 150 L 276.5 150 Q 285.4 152.1 291 157.5 L 297 165.5 L 300 174.5 L 301 184.5 L 304 190 L 322.5 199 L 338.5 193 L 351.5 193 L 366 200 L 380 223.5 L 382 236.5 L 380 246.5 L 371.5 258 L 363 264.5 L 360 269.5 L 360 286.5 L 364.5 293 L 375 301.5 L 380 309.5 L 382 322.5 L 380 332.5 Q 374.3 345.8 365.5 356 L 351.5 363 L 338.5 363 L 321.5 357 L 304 366 L 301 371.5 Q 300.8 382.8 297 390.5 L 290.5 399 L 276.5 406 L 249.5 406 Q 239.3 404.3 234 397.5 Q 225.2 388.8 225 371.5 L 217.5 363 L 203.5 357 L 188.5 363 L 174.5 363 Q 161.9 360.1 156 350.5 L 146 332.5 L 144 319.5 Q 146.5 318 145 312.5 L 148 305.5 L 155.5 297 L 163 292 L 166 286.5 L 166 269.5 L 163 264 L 150 253.5 L 145 243.5 L 144 232.5 Q 149 210.5 163.5 198 L 174.5 193 L 188.5 193 L 204.5 199 L 222 189.5 L 225 184.5 L 227 169.5 L 234 158 L 240.5 153 L 249.5 150 Z M 254 172 L 249 177 L 247 191 L 241 203 Q 230 216 210 221 L 194 220 L 182 215 L 177 217 L 168 231 L 167 238 L 180 248 L 185 256 L 189 269 Q 192 292 183 304 L 173 313 L 167 320 L 167 324 L 176 339 L 182 341 L 199 335 L 215 336 L 234 346 Q 242 352 246 363 L 248 370 L 248 376 L 250 381 L 255 384 L 272 384 L 274 383 L 277 380 L 279 366 L 285 354 Q 296 340 317 335 L 333 336 L 345 341 L 350 339 L 359 324 L 358 318 L 353 313 L 341 301 L 337 288 L 337 269 L 338 264 L 345 249 L 354 243 L 359 237 L 359 233 L 352 221 L 345 215 L 328 221 L 312 220 L 293 210 L 281 197 L 278 187 L 277 177 L 272 172 L 254 172 Z " /><path fill="rgb(156,121,102)" stroke="rgb(156,121,102)" stroke-width="1" opacity="0.9450980392156862" d="M 257.5 224 L 269.5 224 L 284.5 228 Q 296.9 233.6 305 243.5 Q 312.7 252.3 316 265.5 L 317 284.5 Q 312.7 309.7 295.5 322 Q 287 328 275.5 331 L 256.5 332 L 246.5 330 L 233.5 324 L 221 312.5 L 219 309.5 L 214 302.5 L 210 290.5 L 209 271.5 Q 213.1 247.1 229.5 235 L 238.5 229 L 257.5 224 Z M 257 247 Q 247 249 242 255 Q 235 261 232 272 L 232 285 L 239 299 Q 245 306 257 309 L 270 309 L 284 302 Q 291 296 294 285 Q 295 274 293 268 L 287 258 L 276 249 Q 269 245 257 247 Z " /><path fill="rgb(0,0,0)" stroke="rgb(0,0,0)" stroke-width="1" opacity="0" d="M 0 0 L 1038 0 L 1038 1212 L 0 1212 L 0 0 Z M 250 150 L 241 153 L 234 158 L 227 170 L 225 185 L 222 190 L 205 199 L 189 193 L 175 193 L 164 198 Q 149 210 144 233 L 145 244 L 150 254 L 163 264 L 166 270 L 166 287 L 163 292 L 156 297 L 148 306 L 145 313 Q 147 318 144 320 L 146 333 L 156 351 Q 162 360 175 363 L 189 363 L 204 357 L 218 363 L 225 372 Q 225 389 234 398 Q 239 404 250 406 L 277 406 L 291 399 L 297 391 Q 301 383 301 372 L 304 366 L 322 357 L 339 363 L 352 363 L 366 356 Q 374 346 380 333 L 382 323 L 380 310 L 375 302 L 365 293 L 360 287 L 360 270 L 363 265 L 372 258 L 380 247 L 382 237 L 380 224 L 366 200 L 352 193 L 339 193 L 323 199 L 304 190 L 301 185 L 300 175 L 297 166 L 291 158 Q 285 152 277 150 L 250 150 Z " /><path fill="rgb(0,0,0)" stroke="rgb(0,0,0)" stroke-width="1" opacity="0" d="M 253.5 172 L 271.5 172 L 277 176.5 L 278 186.5 L 281 196.5 L 292.5 210 L 311.5 220 L 327.5 221 L 344.5 215 L 352 220.5 L 359 232.5 L 359 236.5 L 353.5 243 L 345 249 L 338 263.5 L 337 268.5 L 337 287.5 L 341 300.5 L 352.5 313 L 358 317.5 L 359 323.5 L 350 339 L 344.5 341 L 332.5 336 L 316.5 335 Q 296.4 339.9 285 353.5 L 279 365.5 L 277 379.5 L 273.5 383 L 271.5 384 L 254.5 384 L 250 380.5 L 248 375.5 L 248 369.5 L 246 362.5 Q 241.8 352.2 233.5 346 L 214.5 336 L 198.5 335 L 181.5 341 L 176 339 L 167 323.5 L 167 319.5 L 172.5 313 L 183 303.5 Q 191.9 291.9 189 268.5 L 185 255.5 L 179.5 248 L 167 237.5 L 168 230.5 L 176.5 217 L 181.5 215 L 193.5 220 L 209.5 221 Q 229.6 216.1 241 202.5 L 247 190.5 L 249 176.5 L 253.5 172 Z M 258 224 L 239 229 L 230 235 Q 213 247 209 272 L 210 291 L 214 303 L 219 310 L 221 313 L 234 324 L 247 330 L 257 332 L 276 331 Q 287 328 296 322 Q 313 310 317 285 L 316 266 Q 313 252 305 244 Q 297 234 285 228 L 270 224 L 258 224 Z " /><path fill="rgb(0,0,0)" stroke="rgb(0,0,0)" stroke-width="1" opacity="0" d="M 256.5 247 Q 268.6 245.4 275.5 249 L 287 257.5 L 293 267.5 Q 295.3 274.2 294 284.5 Q 291.1 295.6 283.5 302 L 269.5 309 L 256.5 309 Q 245.4 306.1 239 298.5 L 232 284.5 L 232 271.5 Q 234.7 261.2 241.5 255 Q 247.3 249.3 256.5 247 Z " /></svg>