<svg viewBox="536 184 296 296" version="1.1" xmlns="http://www.w3.org/2000/svg" desc="Created with imagetracer.js version 1.2.6" ><path fill="#9B7561" stroke="#9B7561" stroke-width="1" opacity="0.9607843137254902" d="M 667.5 204 L 700.5 204 L 726.5 210 L 744.5 218 L 761.5 229 L 782 248.5 Q 798.4 267.1 807 293.5 L 812 314.5 L 812 348.5 L 808 367.5 L 799 390.5 Q 786.8 413.8 767.5 430 Q 748.9 446.4 722.5 455 L 700.5 460 L 666.5 460 Q 614 450 586 415.5 Q 569.6 396.9 561 370.5 L 556 348.5 L 556 315.5 L 563 287.5 L 573 266.5 Q 584.8 247.3 601.5 233 L 613.5 224 L 631.5 214 L 652.5 207 L 667.5 204 Z M 674 226 L 673 227 L 661 228 L 638 236 Q 622 244 611 255 Q 595 269 586 291 L 580 309 L 579 321 L 578 322 L 578 344 L 583 367 L 593 388 L 607 405 Q 606 407 609 406 L 612 411 L 629 423 L 643 430 L 661 436 L 673 437 L 674 438 L 703 437 L 724 431 Q 742 424 755 411 Q 757 412 756 410 L 761 406 L 775 388 L 783 372 L 788 356 L 789 344 L 790 343 L 789 314 L 784 296 Q 776 274 761 259 L 740 241 L 719 231 L 695 226 L 674 226 Z " /><path fill="#9B7561" stroke="#9B7561" stroke-width="1" opacity="0.9607843137254902" d="M 679.5 268 Q 690.6 266.4 694 272.5 L 695 275.5 L 695 292.5 L 692 298 L 688.5 300 L 680.5 300 L 675 296.5 L 673 292.5 L 673 275.5 L 677.5 269 L 679.5 268 Z " /><path fill="#9B7561" stroke="#9B7561" stroke-width="1" opacity="0.9607843137254902" d="M 681.5 310 L 686.5 310 L 694 315.5 L 695 318.5 L 695 388.5 L 692 394 Q 688.8 397 680.5 396 L 675 392.5 L 673 388.5 L 673 318.5 L 677.5 312 L 681.5 310 Z " /><path fill="#9B7561" stroke="#9B7561" stroke-width="1" opacity="0" d="M 0 0 L 1038 0 L 1038 1212 L 0 1212 L 0 0 Z M 668 204 L 653 207 L 632 214 L 614 224 L 602 233 Q 585 247 573 267 L 563 288 L 556 316 L 556 349 L 561 371 Q 570 397 586 416 Q 614 450 667 460 L 701 460 L 723 455 Q 749 446 768 430 Q 787 414 799 391 L 808 368 L 812 349 L 812 315 L 807 294 Q 798 267 782 249 L 762 229 L 745 218 L 727 210 L 701 204 L 668 204 Z " /><path fill="#9B7561" stroke="#9B7561" stroke-width="1" opacity="0" d="M 673.5 226 L 694.5 226 L 718.5 231 L 739.5 241 L 761 258.5 Q 776 273.5 784 295.5 L 789 313.5 L 790 342.5 L 789 343.5 L 788 355.5 L 783 371.5 L 775 387.5 L 761 406 L 756 409.5 Q 756.8 411.8 754.5 411 Q 741.8 423.8 723.5 431 L 702.5 437 L 673.5 438 L 672.5 437 L 660.5 436 L 642.5 430 L 628.5 423 L 612 411 L 608.5 406 Q 606.3 406.8 607 404.5 L 593 387.5 L 583 366.5 L 578 343.5 L 578 321.5 L 579 320.5 L 580 308.5 L 586 290.5 Q 594.9 269.4 610.5 255 Q 622.2 243.7 637.5 236 L 660.5 228 L 672.5 227 L 673.5 226 Z M 680 268 L 678 269 L 673 276 L 673 293 L 675 297 L 681 300 L 689 300 L 692 298 L 695 293 L 695 276 L 694 273 Q 691 266 680 268 Z M 682 310 L 678 312 L 673 319 L 673 389 L 675 393 L 681 396 Q 689 397 692 394 L 695 389 L 695 319 L 694 316 L 687 310 L 682 310 Z " /></svg>