<?xml version="1.0" encoding="UTF-8"?>
<svg viewBox="96 96 608 608" version="1.1" xmlns="http://www.w3.org/2000/svg" width="800" height="800">
<path d="M0 0 C33.27107982 28.00051664 34.48478671 77.70212568 39.63970947 117.60717773 C40.5057013 124.30296737 41.38203066 130.99740487 42.26046181 137.69157219 C42.56117307 139.99256655 42.85803947 142.29403076 43.15434265 144.59559631 C44.05764312 151.55041482 45.03661909 158.46149792 46.41743469 165.34165955 C46.77734375 167.55859375 46.77734375 167.55859375 46.77734375 171.55859375 C47.81632812 171.08808594 48.8553125 170.61757813 49.92578125 170.1328125 C68.73318724 161.70120559 85.92626375 157.06729193 106.09765625 164.40234375 C111.19038282 166.64856535 114.68136374 169.94140557 117.77734375 174.55859375 C120.15906921 181.70377012 119.91769689 190.19327471 116.65234375 196.99609375 C115.74170455 198.54595602 114.78492882 200.06993357 113.77734375 201.55859375 C113.34292969 202.20441406 112.90851562 202.85023438 112.4609375 203.515625 C106.52810735 211.27394135 97.23753649 215.78480761 87.77734375 217.55859375 C75.54492515 218.93474084 65.13546127 214.36122687 55.65234375 206.8828125 C49.39429958 201.17479174 45.6851728 193.95852536 41.77734375 186.55859375 C37.57625092 188.07601075 33.88411631 190.19031681 30.09765625 192.5234375 C28.77564284 193.32693642 27.45319675 194.12972377 26.13037109 194.93188477 C25.44110535 195.35075958 24.7518396 195.7696344 24.04168701 196.20120239 C-10.09140696 216.86111667 -57.02732971 241.21439937 -98.55419922 232.04370117 C-99.10479004 231.88361572 -99.65538086 231.72353027 -100.22265625 231.55859375 C-100.36960937 232.56277344 -100.5165625 233.56695312 -100.66796875 234.6015625 C-102.17255561 244.06661243 -104.64507455 252.04609576 -109.22265625 260.55859375 C-109.88394531 261.84830078 -109.88394531 261.84830078 -110.55859375 263.1640625 C-119.22684516 278.92224208 -133.91066184 290.74443024 -150.84765625 296.59765625 C-171.6661698 302.52514969 -192.38966243 302.10322203 -212.22265625 292.55859375 C-231.9868974 281.26827099 -245.2019349 264.98242701 -251.59765625 243.12109375 C-256.7880244 222.13271981 -253.01076786 200.886312 -242.33007812 182.35693359 C-232.80380189 166.88723545 -216.75693097 154.58573345 -199.22265625 149.55859375 C-177.08752745 144.33997308 -156.45072177 146.28887785 -136.38671875 157.58984375 C-117.1729804 169.54505873 -106.08518618 187.06978587 -100.81640625 208.64453125 C-100.10636926 213.32516982 -100.09291743 217.83634102 -100.22265625 222.55859375 C-77.52643631 223.10329631 -77.52643631 223.10329631 -55.22265625 219.55859375 C-54.05621582 219.27653076 -54.05621582 219.27653076 -52.86621094 218.98876953 C-25.94987921 212.36766797 -1.08884629 200.2991854 21.9375 185.0546875 C34.84681572 176.55859375 34.84681572 176.55859375 38.77734375 176.55859375 C38.58498138 175.85703156 38.39261902 175.15546936 38.19442749 174.43264771 C36.0942888 166.45922462 34.77116673 158.53132275 33.69140625 150.36328125 C33.50815627 149.01487451 33.32427227 147.6665538 33.13980103 146.3183136 C32.75302571 143.48346846 32.37011037 140.64814155 31.99035645 137.81234741 C31.39857694 133.39630986 30.79564331 128.9818409 30.19042969 124.56762695 C29.40035434 118.80109473 28.61225666 113.03430053 27.82714844 107.26708984 C27.64514744 105.93064292 27.46314079 104.59419677 27.28112793 103.25775146 C26.96867982 100.96352534 26.65625643 98.66929584 26.34387207 96.37506104 C20.63668073 47.25604048 20.63668073 47.25604048 -6.78515625 7.99609375 C-19.99648976 -1.63278 -34.50526195 -5.04016439 -50.640625 -3.01171875 C-67.25307101 -0.02479727 -80.0852702 9.29663962 -90.1953125 22.58984375 C-96.53695579 31.87625781 -101.47443954 41.94517008 -106.359375 52.05078125 C-106.91059273 53.19091423 -106.91059273 53.19091423 -107.47294617 54.3540802 C-109.32373322 58.19023646 -111.16186729 62.0318571 -112.98217773 65.88256836 C-121.65706444 84.12428804 -132.7994192 106.63931779 -152.671875 114.53125 C-161.78994064 117.53336962 -169.31540514 117.26765033 -178.22265625 113.55859375 C-183.26450634 110.70154537 -187.72342093 107.19410152 -192.22265625 103.55859375 C-201.16988874 109.68169979 -210.08881153 115.843806 -218.97265625 122.05859375 C-220.2580127 122.95698975 -220.2580127 122.95698975 -221.56933594 123.87353516 C-222.37790039 124.43991699 -223.18646484 125.00629883 -224.01953125 125.58984375 C-224.73463867 126.09064453 -225.44974609 126.59144531 -226.18652344 127.10742188 C-227.60377259 128.11750928 -228.99371378 129.16656328 -230.36035156 130.24414062 C-232.22265625 131.55859375 -232.22265625 131.55859375 -234.22265625 131.55859375 C-234.22265625 132.48671875 -234.22265625 133.41484375 -234.22265625 134.37109375 C-235.78916435 145.40378653 -248.01997553 155.1265607 -256.34765625 161.55859375 C-271.38802437 172.71208116 -289.46715439 180.36465843 -306.34765625 188.30859375 C-333.07631257 200.91531741 -357.04726839 217.52671627 -378.85546875 237.42578125 C-395.34519585 252.2828621 -395.34519585 252.2828621 -407.6953125 251.91015625 C-411.24523114 251.41634995 -412.9333975 250.29093484 -415.22265625 247.55859375 C-417.60695824 243.76538604 -417.52283621 240.19564963 -416.859375 235.88671875 C-414.8931761 228.69742708 -410.08660159 225.20805664 -403.84765625 221.55859375 C-398.12460945 218.41938586 -392.24861267 215.57515531 -386.39477539 212.69042969 C-363.25665993 201.17815771 -341.8798623 185.84990149 -323.0390625 168.19140625 C-320.36312025 165.68990129 -317.6465024 163.24365292 -314.91015625 160.80859375 C-312.10895543 158.30085207 -309.39956629 155.75973777 -306.78515625 153.05859375 C-302.27207254 148.48224251 -297.25685985 144.54177346 -292.22265625 140.55859375 C-291.29453125 139.80191406 -290.36640625 139.04523438 -289.41015625 138.265625 C-281.56715821 132.07434529 -273.29885632 127.62460955 -264.22265625 123.55859375 C-263.37703125 123.17445313 -262.53140625 122.7903125 -261.66015625 122.39453125 C-255.28414745 119.8863219 -246.83072538 119.09503539 -240.25097656 121.18481445 C-236.57007571 121.86313164 -233.70709961 119.00605201 -230.78515625 116.99609375 C-230.0573999 116.51100342 -229.32964355 116.02591309 -228.57983398 115.52612305 C-226.11897642 113.88253779 -223.67075212 112.22112039 -221.22265625 110.55859375 C-218.35862029 108.62705771 -215.49220649 106.69918812 -212.62280273 104.77563477 C-210.74615548 103.51608687 -208.87319323 102.25102935 -207.00415039 100.98022461 C-206.14942139 100.40409424 -205.29469238 99.82796387 -204.4140625 99.234375 C-203.65295166 98.71786377 -202.89184082 98.20135254 -202.10766602 97.66918945 C-200.22265625 96.55859375 -200.22265625 96.55859375 -198.22265625 96.55859375 C-205.31669259 83.81530193 -213.77059069 69.72281446 -227.96484375 64.18359375 C-233.44795177 62.66577838 -237.65012449 62.98199877 -242.97265625 64.93359375 C-250.81148849 70.11226003 -252.44818349 81.54731454 -254.22265625 90.05859375 C-256.37158357 100.36594864 -258.78131724 110.55845896 -267.22265625 117.55859375 C-268.06828125 118.28046875 -268.91390625 119.00234375 -269.78515625 119.74609375 C-276.7242215 123.40487361 -284.75358046 124.49678056 -292.39453125 122.57421875 C-305.64767131 117.81480381 -319.09030122 110.41202636 -327.22265625 98.55859375 C-328.18336059 95.67648073 -328.32847508 93.86009331 -328.28515625 90.87109375 C-328.27613281 90.06285156 -328.26710938 89.25460937 -328.2578125 88.421875 C-328.24621094 87.80699219 -328.23460937 87.19210937 -328.22265625 86.55859375 C-325.41015625 85.87109375 -325.41015625 85.87109375 -322.22265625 85.55859375 C-319.65795939 87.52383135 -318.81713327 89.31288055 -317.97265625 92.37109375 C-314.46953926 101.95673725 -302.05185058 107.44322073 -293.22265625 111.55859375 C-287.19279005 113.31276255 -280.80537823 113.53320582 -274.91015625 111.30859375 C-267.34863833 103.57122657 -265.19254358 93.56460316 -263.04663086 83.29711914 C-260.85381139 72.98065719 -257.92612949 63.43159828 -249.10546875 57.01953125 C-241.37629938 52.48339578 -233.09857622 52.22240291 -224.45703125 54.1875 C-209.07759726 59.5799745 -200.15989074 73.8818618 -191.59765625 86.828125 C-191.14390625 87.39917969 -190.69015625 87.97023438 -190.22265625 88.55859375 C-187.578664 88.55859375 -186.4518455 87.59457581 -184.22265625 86.1796875 C-183.02177368 85.42026855 -183.02177368 85.42026855 -181.79663086 84.64550781 C-180.94721924 84.10120117 -180.09780762 83.55689453 -179.22265625 82.99609375 C-178.36357666 82.45049805 -177.50449707 81.90490234 -176.61938477 81.34277344 C-171.2769102 77.93175836 -166.03807184 74.43288997 -160.9375 70.66796875 C-159.22265625 69.55859375 -159.22265625 69.55859375 -157.22265625 69.55859375 C-157.22265625 68.89859375 -157.22265625 68.23859375 -157.22265625 67.55859375 C-157.88265625 67.55859375 -158.54265625 67.55859375 -159.22265625 67.55859375 C-158.89265625 65.90859375 -158.56265625 64.25859375 -158.22265625 62.55859375 C-151.05476858 61.22220791 -151.05476858 61.22220791 -147.28515625 62.74609375 C-145.22265625 64.55859375 -145.22265625 64.55859375 -144.16015625 66.49609375 C-144.22265625 68.55859375 -144.22265625 68.55859375 -145.91186523 70.46191406 C-148.25721995 72.58995487 -150.6468337 74.37733533 -153.2578125 76.16796875 C-154.23298828 76.84085937 -155.20816406 77.51375 -156.21289062 78.20703125 C-157.22673828 78.90054688 -158.24058594 79.5940625 -159.28515625 80.30859375 C-171.80579943 88.25399943 -171.80579943 88.25399943 -183.22265625 97.55859375 C-181.80797314 98.51985278 -180.39081985 99.477477 -178.97265625 100.43359375 C-178.18375 100.96726562 -177.39484375 101.5009375 -176.58203125 102.05078125 C-170.4569896 105.96512906 -165.47498634 106.43655553 -158.22265625 105.55859375 C-154.82098406 104.36986587 -152.11721568 102.68598612 -149.22265625 100.55859375 C-148.5575 100.08550781 -147.89234375 99.61242187 -147.20703125 99.125 C-130.08370078 85.60835528 -121.42829964 60.4907327 -112.47265625 41.37109375 C-102.27412747 19.74866022 -89.6268628 -0.04453838 -66.53515625 -9.37890625 C-44.35146384 -17.04669028 -18.90556763 -14.88286049 0 0 Z M-191.22265625 164.55859375 C-192.08246094 165.39519531 -192.94226563 166.23179687 -193.828125 167.09375 C-195.99728292 169.21582543 -198.12322128 171.36787899 -200.22265625 173.55859375 C-196.28928724 176.18083975 -192.94487218 176.94651826 -188.22265625 176.55859375 C-185.43094098 175.15627381 -183.4187414 173.19345088 -181.22265625 170.99609375 C-180.02566909 169.87901401 -178.82515122 168.76570528 -177.62109375 167.65625 C-177.04584961 167.11887207 -176.47060547 166.58149414 -175.87792969 166.02783203 C-173.05572638 163.5228144 -169.9251955 161.5801173 -166.69921875 159.64453125 C-166.21195313 159.28617188 -165.7246875 158.9278125 -165.22265625 158.55859375 C-165.22265625 157.89859375 -165.22265625 157.23859375 -165.22265625 156.55859375 C-176.52821788 155.54866765 -183.01608691 155.92681357 -191.22265625 164.55859375 Z M-204.22265625 161.55859375 C-211.02894559 164.45945007 -216.89518144 168.4678956 -222.22265625 173.55859375 C-222.22265625 173.88859375 -222.22265625 174.21859375 -222.22265625 174.55859375 C-218.51654607 175.2876646 -216.78348901 175.59632215 -213.22265625 174.55859375 C-208.94571524 171.21359319 -205.58623354 166.78349831 -202.22265625 162.55859375 C-202.88265625 162.22859375 -203.54265625 161.89859375 -204.22265625 161.55859375 Z M-159.91015625 165.62109375 C-160.52648926 166.027229 -161.14282227 166.43336426 -161.77783203 166.85180664 C-169.32117002 171.79540811 -169.32117002 171.79540811 -176.22265625 177.55859375 C-176.22265625 178.21859375 -176.22265625 178.87859375 -176.22265625 179.55859375 C-172.22825302 181.20577034 -168.55539791 182.34247124 -164.22265625 182.55859375 C-161.25932526 181.03688324 -159.23794505 179.19808574 -156.82421875 176.91015625 C-152.47841641 172.98196855 -147.33406413 170.36898984 -142.22265625 167.55859375 C-142.94358425 164.31115745 -142.94358425 164.31115745 -146.03515625 162.87109375 C-151.97108402 160.4268882 -154.99319544 162.32038682 -159.91015625 165.62109375 Z M59.46484375 175.99609375 C58.7169458 176.28419922 57.96904785 176.57230469 57.19848633 176.86914062 C54.85091943 177.8033316 54.85091943 177.8033316 51.77734375 179.55859375 C50.70740072 182.29108451 50.60057704 183.14797225 51.78125 185.890625 C58.00756819 195.79967776 63.92774372 203.72921459 75.55078125 207.4453125 C83.87262124 209.27518488 90.23051748 208.37594133 97.46484375 203.87109375 C102.82728686 200.02738453 108.19933536 195.18622899 109.77734375 188.55859375 C110.39827024 183.91440382 110.55497699 180.72504362 107.90234375 176.74609375 C92.51408989 165.97431605 75.85984063 169.5311407 59.46484375 175.99609375 Z M-154.22265625 185.55859375 C-154.22265625 186.21859375 -154.22265625 186.87859375 -154.22265625 187.55859375 C-153.00643454 188.28893036 -151.77387869 188.99210729 -150.53515625 189.68359375 C-149.85066406 190.07804687 -149.16617187 190.4725 -148.4609375 190.87890625 C-145.32203129 191.83208196 -144.12667826 191.04023763 -141.22265625 189.55859375 C-138.80269274 188.2549097 -136.41479448 186.93117505 -134.03515625 185.55859375 C-133.0925293 185.02492188 -133.0925293 185.02492188 -132.13085938 184.48046875 C-129.55559252 183.00416604 -127.33126899 181.66720649 -125.22265625 179.55859375 C-126.15052414 178.54965003 -127.09034058 177.55168468 -128.03515625 176.55859375 C-128.55722656 176.00171875 -129.07929688 175.44484375 -129.6171875 174.87109375 C-135.4797606 170.07833326 -149.27379078 181.53044743 -154.22265625 185.55859375 Z M-233.59765625 186.74609375 C-235.26424477 189.63057388 -236.74477632 192.5739368 -238.22265625 195.55859375 C-237.56483154 195.51782715 -236.90700684 195.47706055 -236.22924805 195.43505859 C-198.77303278 193.22657838 -164.67216427 199.77855727 -135.22265625 224.55859375 C-134.43503906 225.21214844 -133.64742188 225.86570312 -132.8359375 226.5390625 C-125.83338095 232.5742329 -120.03528361 239.40884109 -114.22265625 246.55859375 C-111.43941569 243.77535319 -110.62077842 241.38641534 -109.91015625 237.5390625 C-110.60473333 230.91453356 -116.67185181 226.03183568 -121.22265625 221.55859375 C-122.12371094 220.65625 -123.02476562 219.75390625 -123.953125 218.82421875 C-147.72617782 196.20997058 -179.92898114 183.27310268 -212.72265625 183.43359375 C-213.51285156 183.42972656 -214.30304688 183.42585937 -215.1171875 183.421875 C-225.07402183 182.9401518 -225.07402183 182.9401518 -233.59765625 186.74609375 Z M-120.22265625 187.55859375 C-125.50265625 190.52859375 -130.78265625 193.49859375 -136.22265625 196.55859375 C-132.34392406 200.76070677 -132.34392406 200.76070677 -127.22265625 203.55859375 C-123.26265625 201.24859375 -119.30265625 198.93859375 -115.22265625 196.55859375 C-116.993632 191.50288515 -116.993632 191.50288515 -120.22265625 187.55859375 Z M-242.22265625 205.55859375 C-242.55265625 208.85859375 -242.88265625 212.15859375 -243.22265625 215.55859375 C-241.05703125 215.31109375 -241.05703125 215.31109375 -238.84765625 215.05859375 C-203.7991572 212.01089818 -171.62792554 221.0610095 -144.5390625 243.8125 C-137.96129921 249.56929436 -131.57573848 255.71608261 -126.84765625 263.12109375 C-126.31140625 263.92546875 -125.77515625 264.72984375 -125.22265625 265.55859375 C-124.56265625 265.55859375 -123.90265625 265.55859375 -123.22265625 265.55859375 C-120.01732742 261.79949161 -120.01732742 261.79949161 -119.421875 257.11328125 C-120.87023128 252.49267147 -124.13574451 249.20940463 -127.22265625 245.55859375 C-127.89683594 244.7490625 -128.57101562 243.93953125 -129.265625 243.10546875 C-146.15791264 223.53626121 -169.12240477 211.04754984 -194.22265625 205.55859375 C-195.23070312 205.33300781 -196.23875 205.10742188 -197.27734375 204.875 C-211.82037066 202.13637805 -227.75734479 202.50177321 -242.22265625 205.55859375 Z M-119.22265625 209.55859375 C-116.25265625 213.02359375 -116.25265625 213.02359375 -113.22265625 216.55859375 C-112.23265625 216.22859375 -111.24265625 215.89859375 -110.22265625 215.55859375 C-110.55265625 212.25859375 -110.88265625 208.95859375 -111.22265625 205.55859375 C-114.50424109 205.55859375 -116.60146733 207.73515798 -119.22265625 209.55859375 Z M-244.22265625 225.55859375 C-244.13327822 227.08378651 -243.97728479 228.60541304 -243.78515625 230.12109375 C-243.68332031 230.94738281 -243.58148438 231.77367187 -243.4765625 232.625 C-243.39277344 233.26308594 -243.30898438 233.90117187 -243.22265625 234.55859375 C-242.55435791 234.5428833 -241.88605957 234.52717285 -241.19750977 234.51098633 C-206.44071002 233.80434126 -177.33173188 241.36497626 -151.30078125 265.23828125 C-146.71638004 269.70061261 -142.7178412 274.19931015 -139.22265625 279.55859375 C-136.58265625 277.57859375 -133.94265625 275.59859375 -131.22265625 273.55859375 C-145.83183542 249.86803293 -169.82071988 232.88918594 -196.78515625 226.18359375 C-205.88600276 224.04112221 -214.40533896 223.40090141 -223.72265625 223.43359375 C-224.82480469 223.42972656 -225.92695313 223.42585937 -227.0625 223.421875 C-236.14639938 222.78138877 -236.14639938 222.78138877 -244.22265625 225.55859375 Z M-234.22265625 243.55859375 C-235.91210046 249.33392205 -237.33501961 254.2746128 -234.609375 259.87109375 C-232.606507 262.60324762 -230.59842684 265.14411406 -228.22265625 267.55859375 C-227.89265625 267.55859375 -227.56265625 267.55859375 -227.22265625 267.55859375 C-226.23265625 259.63859375 -225.24265625 251.71859375 -224.22265625 243.55859375 C-229.57825751 242.48489046 -229.57825751 242.48489046 -234.22265625 243.55859375 Z M-215.22265625 244.55859375 C-216.75868534 250.90751397 -217.78764803 257.04272595 -218.22265625 263.55859375 C-218.33480469 264.65171875 -218.44695312 265.74484375 -218.5625 266.87109375 C-219.14930643 273.22921972 -219.14930643 273.22921972 -216.47265625 278.71875 C-213.17681791 281.41288703 -213.17681791 281.41288703 -209.22265625 282.55859375 C-209.14748779 281.57016479 -209.14748779 281.57016479 -209.07080078 280.56176758 C-207.2079426 256.37206835 -207.2079426 256.37206835 -205.22265625 245.55859375 C-208.52265625 245.22859375 -211.82265625 244.89859375 -215.22265625 244.55859375 Z M-196.22265625 248.55859375 C-201.18235484 267.98681775 -201.18235484 267.98681775 -199.22265625 287.55859375 C-197.34878409 288.36072003 -197.34878409 288.36072003 -195.16015625 288.74609375 C-194.05994141 288.98392578 -194.05994141 288.98392578 -192.9375 289.2265625 C-192.37160156 289.33613281 -191.80570313 289.44570313 -191.22265625 289.55859375 C-191.17254395 288.91422363 -191.12243164 288.26985352 -191.07080078 287.60595703 C-190.8359184 284.63131284 -190.59183634 281.6574886 -190.34765625 278.68359375 C-190.22970703 277.16378906 -190.22970703 277.16378906 -190.109375 275.61328125 C-189.63327296 269.90005681 -188.90987097 264.39729043 -187.62060547 258.80810547 C-187.1861653 256.35231912 -187.15737532 254.04749759 -187.22265625 251.55859375 C-190.19265625 250.56859375 -193.16265625 249.57859375 -196.22265625 248.55859375 Z M-178.22265625 257.55859375 C-182.05495684 268.23428826 -182.5590279 279.30883072 -182.22265625 290.55859375 C-180.27359375 290.83703125 -180.27359375 290.83703125 -178.28515625 291.12109375 C-177.55425781 291.22550781 -176.82335937 291.32992187 -176.0703125 291.4375 C-175.46058594 291.47746094 -174.85085938 291.51742187 -174.22265625 291.55859375 C-172.61932251 289.95526001 -172.79139911 288.07262337 -172.50390625 285.859375 C-172.37628906 284.89708984 -172.24867188 283.93480469 -172.1171875 282.94335938 C-171.98699219 281.92951172 -171.85679687 280.91566406 -171.72265625 279.87109375 C-171.46303104 277.88791706 -171.20263531 275.90484106 -170.94140625 273.921875 C-170.81894531 272.99068848 -170.69648438 272.05950195 -170.5703125 271.10009766 C-170.1793665 268.24212867 -169.72588354 265.39892473 -169.22265625 262.55859375 C-170.34339487 261.7195381 -171.46940172 260.88751544 -172.59765625 260.05859375 C-173.22414063 259.59453125 -173.850625 259.13046875 -174.49609375 258.65234375 C-176.16360238 257.38021274 -176.16360238 257.38021274 -178.22265625 257.55859375 Z M-161.22265625 269.55859375 C-163.50850523 276.11136082 -163.82859993 282.66260814 -164.22265625 289.55859375 C-160.75324079 289.10036907 -157.54870576 288.66727692 -154.22265625 287.55859375 C-152.61329497 280.68659238 -152.61329497 280.68659238 -154.6796875 274.26953125 C-157.51457373 271.07887317 -157.51457373 271.07887317 -161.22265625 269.55859375 Z " fill="#936E5A" transform="translate(552.22265625,261.44140625)"/>
<path d="M0 0 C2.31 0 4.62 0 7 0 C6.67 4.29 6.34 8.58 6 13 C9.3 12.67 12.6 12.34 16 12 C16.05394705 14.60444348 16.09364469 17.20776998 16.125 19.8125 C16.14175781 20.55048828 16.15851562 21.28847656 16.17578125 22.04882812 C16.21074628 25.91246426 16.19397555 27.70903668 14 31 C10.375 31.1875 10.375 31.1875 7 31 C6.34 29.35 5.68 27.7 5 26 C6.65 26 8.3 26 10 26 C9.505 22.535 9.505 22.535 9 19 C7.68 19.33 6.36 19.66 5 20 C4.67 22.97 4.34 25.94 4 29 C2.35 28.67 0.7 28.34 -1 28 C-1 25.69 -1 23.38 -1 21 C-1.99 21.33 -2.98 21.66 -4 22 C-4.09087891 23.26457031 -4.09087891 23.26457031 -4.18359375 24.5546875 C-4.26738281 25.65039062 -4.35117187 26.74609375 -4.4375 27.875 C-4.51871094 28.96554687 -4.59992187 30.05609375 -4.68359375 31.1796875 C-5 34 -5 34 -6 36 C-2.37 36.33 1.26 36.66 5 37 C5 35.68 5 34.36 5 33 C7.31 33 9.62 33 12 33 C12 35.97 12 38.94 12 42 C-3.55629139 44.86092715 -3.55629139 44.86092715 -11 43 C-11.33 36.07 -11.66 29.14 -12 22 C-13.65 21.67 -15.3 21.34 -17 21 C-17.33820166 22.5823006 -17.67035939 24.16589375 -18 25.75 C-18.185625 26.63171875 -18.37125 27.5134375 -18.5625 28.421875 C-19.11153675 31.22143965 -19.11153675 31.22143965 -19 35 C-20 37.25 -20 37.25 -21 39 C-21.721875 38.773125 -22.44375 38.54625 -23.1875 38.3125 C-26.07851732 37.7036859 -26.07851732 37.7036859 -28.5 39.5 C-31 41 -31 41 -33.6875 40.9375 C-36 40 -36 40 -37.3125 37.9375 C-37.539375 37.298125 -37.76625 36.65875 -38 36 C-36.02 34.68 -34.04 33.36 -32 32 C-32.804375 31.21625 -33.60875 30.4325 -34.4375 29.625 C-37 27 -37 27 -38 25 C-37.5625 22.875 -37.5625 22.875 -37 21 C-38.32 20.67 -39.64 20.34 -41 20 C-41 17.69 -41 15.38 -41 13 C-38.69 13 -36.38 13 -34 13 C-33.34 9.37 -32.68 5.74 -32 2 C-29.69 2.33 -27.38 2.66 -25 3 C-25.14107747 4.45880109 -25.28802415 5.91703551 -25.4375 7.375 C-25.51871094 8.18710937 -25.59992187 8.99921875 -25.68359375 9.8359375 C-26 12 -26 12 -27 14 C-26.00419922 13.98259766 -26.00419922 13.98259766 -24.98828125 13.96484375 C-23.66376953 13.95130859 -23.66376953 13.95130859 -22.3125 13.9375 C-21.44238281 13.92589844 -20.57226562 13.91429687 -19.67578125 13.90234375 C-17 14 -17 14 -12 15 C-12 11.04 -12 7.08 -12 3 C-9.69 3 -7.38 3 -5 3 C-5 6.96 -5 10.92 -5 15 C-3.35 14.67 -1.7 14.34 0 14 C0 9.38 0 4.76 0 0 Z M-29 20 C-29.66 21.32 -30.32 22.64 -31 24 C-28.525 24.99 -28.525 24.99 -26 26 C-25.34 24.02 -24.68 22.04 -24 20 C-25.65 20 -27.3 20 -29 20 Z " fill="#906D5B" transform="translate(584,582)"/>
<path d="M0 0 C4 5.41176471 4 5.41176471 4 8 C3.01 8.495 3.01 8.495 2 9 C4.64 9 7.28 9 10 9 C10.28875 8.071875 10.5775 7.14375 10.875 6.1875 C12 3 12 3 14 0 C16.475 0.495 16.475 0.495 19 1 C18.125 7.875 18.125 7.875 17 9 C19.97 9.495 19.97 9.495 23 10 C22.67 11.98 22.34 13.96 22 16 C18.0186217 17.3271261 14.14954773 17.06915913 10 17 C10 17.99 10 18.98 10 20 C12.64 20 15.28 20 18 20 C18 21.98 18 23.96 18 26 C15.36 26 12.72 26 10 26 C10 27.32 10 28.64 10 30 C13.63 30 17.26 30 21 30 C21 31.98 21 33.96 21 36 C1.46808511 36.38297872 1.46808511 36.38297872 -7 34 C-7 32.35 -7 30.7 -7 29 C-3.7 29 -0.4 29 3 29 C3 28.01 3 27.02 3 26 C1.700625 25.87625 0.40125 25.7525 -0.9375 25.625 C-3.15234375 25.4140625 -3.15234375 25.4140625 -5 25 C-5.33 24.34 -5.66 23.68 -6 23 C-5.67 22.01 -5.34 21.02 -5 20 C-2.36 20 0.28 20 3 20 C3 18.68 3 17.36 3 16 C-0.3 16 -3.6 16 -7 16 C-7.66 14.02 -8.32 12.04 -9 10 C-7.02 9.67 -5.04 9.34 -3 9 C-3.66 8.01 -4.32 7.02 -5 6 C-5 4.68 -5 3.36 -5 2 C-2 0 -2 0 0 0 Z " fill="#906E5B" transform="translate(375,574)"/>
<path d="M0 0 C2.60452271 0.14086602 5.20850197 0.28748464 7.8125 0.4375 C8.91948242 0.49647461 8.91948242 0.49647461 10.04882812 0.55664062 C13.23071342 0.74381035 15.96162378 0.98720793 19 2 C20.0394775 5.1184325 20.11494838 7.27475586 20.09765625 10.54296875 C20.09443359 11.61611328 20.09121094 12.68925781 20.08789062 13.79492188 C20.07951172 14.91447266 20.07113281 16.03402344 20.0625 17.1875 C20.05798828 18.31865234 20.05347656 19.44980469 20.04882812 20.61523438 C20.03703498 23.41020927 20.0205765 26.2050782 20 29 C4.69080861 29.19109948 4.69080861 29.19109948 -1 28 C-2 27 -2 27 -2.03759766 24.73095703 C-1.99683105 23.74981934 -1.95606445 22.76868164 -1.9140625 21.7578125 C-1.87023437 20.69175781 -1.82640625 19.62570312 -1.78125 18.52734375 C-1.7296875 17.40457031 -1.678125 16.28179688 -1.625 15.125 C-1.58117187 14.00996094 -1.53734375 12.89492188 -1.4921875 11.74609375 C-1.12921507 3.3876452 -1.12921507 3.3876452 0 0 Z M5 6 C5 7.98 5 9.96 5 12 C7.64 12 10.28 12 13 12 C13.33 12.66 13.66 13.32 14 14 C13.67 11.36 13.34 8.72 13 6 C10.36 6 7.72 6 5 6 Z M5 19 C5 20.32 5 21.64 5 23 C7.64 23.33 10.28 23.66 13 24 C13 21.69 13 19.38 13 17 C10.11604263 17 7.70522185 18.05905327 5 19 Z " fill="#8F6E5B" transform="translate(455,598)"/>
<path d="M0 0 C1.65 0.33 3.3 0.66 5 1 C4.67 2.98 4.34 4.96 4 7 C4.64066406 6.98839844 5.28132813 6.97679687 5.94140625 6.96484375 C6.80636719 6.95582031 7.67132813 6.94679688 8.5625 6.9375 C9.40941406 6.92589844 10.25632812 6.91429687 11.12890625 6.90234375 C14.47040302 7.0160001 17.69500034 7.50841745 21 8 C21.02471738 12.78718692 21.04286825 17.5743367 21.05493164 22.36157227 C21.05996065 23.99015958 21.06678465 25.61874237 21.07543945 27.24731445 C21.08756769 29.58806472 21.09324263 31.9287553 21.09765625 34.26953125 C21.10281754 34.99775589 21.10797882 35.72598053 21.11329651 36.47627258 C21.11364279 39.59602288 20.99455604 42.01633188 20 45 C17.59454362 46.20272819 16.05003047 46.10071472 13.375 46.0625 C12.14910156 46.04896484 12.14910156 46.04896484 10.8984375 46.03515625 C10.27195312 46.02355469 9.64546875 46.01195312 9 46 C8.67 44.02 8.34 42.04 8 40 C10.97 39.505 10.97 39.505 14 39 C14 30.42 14 21.84 14 13 C9.71 13 5.42 13 1 13 C0.34 14.32 -0.32 15.64 -1 17 C-3.4375 16.25 -3.4375 16.25 -6 15 C-6.875 13.28125 -6.875 13.28125 -7 11 C-5.56640625 8.203125 -5.56640625 8.203125 -3.5625 5.25 C-2.90378906 4.26515625 -2.24507813 3.2803125 -1.56640625 2.265625 C-1.04949219 1.51796875 -0.53257812 0.7703125 0 0 Z " fill="#8D6C5A" transform="translate(482,584)"/>
<path d="M0 0 C0.33 0.66 0.66 1.32 1 2 C4.63 2 8.26 2 12 2 C12.85262731 9.99338102 13.41811411 17.95745219 13 26 C12 27 12 27 8.98046875 27.1328125 C7.72878906 27.13023437 6.47710937 27.12765625 5.1875 27.125 C3.32158203 27.12886719 3.32158203 27.12886719 1.41796875 27.1328125 C-2 27 -2 27 -6 26 C-5.67 17.75 -5.34 9.5 -5 1 C-3.35 0.67 -1.7 0.34 0 0 Z M1 7 C1 8.32 1 9.64 1 11 C2.32 11 3.64 11 5 11 C5 12.98 5 14.96 5 17 C3.68 17 2.36 17 1 17 C1 18.32 1 19.64 1 21 C2.65 21 4.3 21 6 21 C6 16.38 6 11.76 6 7 C4.35 7 2.7 7 1 7 Z " fill="#916F5D" transform="translate(266,597)"/>
<path d="M0 0 C2.97 0.495 2.97 0.495 6 1 C5.67 2.32 5.34 3.64 5 5 C5.89203125 5.06058594 6.7840625 5.12117187 7.703125 5.18359375 C8.87359375 5.26738281 10.0440625 5.35117187 11.25 5.4375 C12.41015625 5.51871094 13.5703125 5.59992187 14.765625 5.68359375 C17.30977376 5.93247787 19.55953248 6.28114942 22 7 C22 8.65 22 10.3 22 12 C16.06 12 10.12 12 4 12 C3.34 13.98 2.68 15.96 2 18 C-0.12391891 21.41344111 -1.21204365 22.74270813 -5.0625 24 C-8 24 -8 24 -9.875 22.5625 C-10.431875 21.7890625 -10.431875 21.7890625 -11 21 C-9.79367548 17.56661484 -8.61522816 15.49635415 -6 13 C-6 12.34 -6 11.68 -6 11 C-8.64 10.01 -11.28 9.02 -14 8 C-14 6.68 -14 5.36 -14 4 C-12.20841511 3.97303635 -10.41671527 3.95362083 -8.625 3.9375 C-7.62726563 3.92589844 -6.62953125 3.91429687 -5.6015625 3.90234375 C-3 4 -3 4 -1 5 C-0.67 3.35 -0.34 1.7 0 0 Z " fill="#8F6B59" transform="translate(378,611)"/>
<path d="M0 0 C3.40624736 1.20866842 5.10139056 2.96222489 7 6 C7 6.66 7 7.32 7 8 C6.01 8.66 5.02 9.32 4 10 C4.98742187 10.06058594 5.97484375 10.12117187 6.9921875 10.18359375 C8.27351563 10.26738281 9.55484375 10.35117187 10.875 10.4375 C12.15117187 10.51871094 13.42734375 10.59992187 14.7421875 10.68359375 C18 11 18 11 20 12 C19.85831863 13.43791516 19.71148957 14.8753237 19.5625 16.3125 C19.48128906 17.11300781 19.40007812 17.91351562 19.31640625 18.73828125 C19 21 19 21 18 24 C15.69 23.67 13.38 23.34 11 23 C11.33 21.02 11.66 19.04 12 17 C5.73 17 -0.54 17 -7 17 C-7.33 18.98 -7.66 20.96 -8 23 C-11.01031744 23.93423645 -11.86650268 24.04449911 -15 23 C-14.85851011 21.3954444 -14.71164314 19.79136233 -14.5625 18.1875 C-14.48128906 17.29417969 -14.40007812 16.40085937 -14.31640625 15.48046875 C-14 13 -14 13 -13 10 C-10.66705225 9.95758277 -8.33297433 9.95907063 -6 10 C-5.67 10.33 -5.34 10.66 -5 11 C-3.32457024 10.71395102 -1.65614657 10.38218767 0 10 C-0.515625 9.071875 -1.03125 8.14375 -1.5625 7.1875 C-3 4 -3 4 -2 1 C-1.34 0.67 -0.68 0.34 0 0 Z " fill="#8E6C5B" transform="translate(293,573)"/>
<path d="M0 0 C4.51509801 3.01006534 4.99153523 6.95767616 6 12 C4.02 12.66 2.04 13.32 0 14 C-0.66 11.36 -1.32 8.72 -2 6 C-4.27292941 7.01889939 -5.83024561 7.80902631 -7.5 9.6875 C-7.995 10.120625 -8.49 10.55375 -9 11 C-11.125 10.8125 -11.125 10.8125 -13 10 C-13.33 9.34 -13.66 8.68 -14 8 C-15.65 8.33 -17.3 8.66 -19 9 C-18.25749403 13.08378283 -17.17076699 17.01939223 -16 21 C-17.98 21.33 -19.96 21.66 -22 22 C-22.86992154 19.94409546 -23.72037689 17.87994664 -24.5625 15.8125 C-25.03816406 14.66394531 -25.51382812 13.51539063 -26.00390625 12.33203125 C-27.01536316 8.94860873 -27.04283184 7.31583059 -26 4 C-25.21625 3.87625 -24.4325 3.7525 -23.625 3.625 C-20.85942178 3.20882007 -20.85942178 3.20882007 -19 1 C-15.306493 0.79853598 -12.52059568 0.82646811 -9 2 C-5.50875983 -0.32749345 -4.10777749 -0.50299316 0 0 Z " fill="#8A6A59" transform="translate(491,221)"/>
<path d="M0 0 C8.91 0 17.82 0 27 0 C27 1.65 27 3.3 27 5 C22.1956792 7.4021604 17.26896105 7.61122229 12 8 C11.8453125 9.8253125 11.8453125 9.8253125 11.6875 11.6875 C11.20361787 15.43261509 10.45265704 18.02177359 8 21 C5.3125 22.3125 5.3125 22.3125 3 23 C1.68 21.35 0.36 19.7 -1 18 C0.65167557 14.4213696 2.78286492 11.25179812 5 8 C3.35 8 1.7 8 0 8 C0 5.36 0 2.72 0 0 Z " fill="#906E5B" transform="translate(282,609)"/>
<path d="M0 0 C2.475 0.495 2.475 0.495 5 1 C3.16243766 9.4258956 0.52877474 17.13348239 -3 25 C-6.4512896 24.40136924 -9.47957197 23.53017051 -12.6875 22.125 C-13.45449219 21.79757813 -14.22148438 21.47015625 -15.01171875 21.1328125 C-17 20 -17 20 -19 17 C-19.50418234 12.36152243 -18.77954397 9.74169381 -16 6 C-12.83013832 4.41506916 -9.45967739 4.7059958 -6 5 C-3.5 6 -3.5 6 -2 7 C-1.855625 6.21625 -1.71125 5.4325 -1.5625 4.625 C-1 2 -1 2 0 0 Z M-12 10 C-12.33 11.65 -12.66 13.3 -13 15 C-10.32752366 17.34287418 -10.32752366 17.34287418 -7 18 C-5.5393715 15.35261084 -5 14.10551666 -5 11 C-7.31 10.67 -9.62 10.34 -12 10 Z " fill="#8D6B59" transform="translate(560,216)"/>
<path d="M0 0 C4.88581628 1.18444031 7.45652132 4.2782877 10.7421875 7.83203125 C12 10 12 10 11.8125 12.6796875 C11 15 11 15 9.125 16.3125 C7 17 7 17 4 17 C4.33 17.66 4.66 18.32 5 19 C5.125 22.0625 5.125 22.0625 5 25 C3.36987162 26.63012838 1.55562555 26.20976456 -0.6875 26.25 C-5.16924587 26.22427979 -8.14848469 25.43253599 -12 23 C-11.67 21.35 -11.34 19.7 -11 18 C-10.071875 18.165 -9.14375 18.33 -8.1875 18.5 C-5.04378647 19.07748388 -5.04378647 19.07748388 -2 19 C-2.37125 18.236875 -2.7425 17.47375 -3.125 16.6875 C-3.41375 15.800625 -3.7025 14.91375 -4 14 C-2 11 -2 11 1.125 10.3125 C2.07375 10.209375 3.0225 10.10625 4 10 C1.69 8.35 -0.62 6.7 -3 5 C-1.125 1.125 -1.125 1.125 0 0 Z " fill="#8A6A58" transform="translate(414,275)"/>
<path d="M0 0 C10.55808656 6.15034169 10.55808656 6.15034169 15 10 C13.23186986 15.62586863 9.83239156 18.77840563 5 22 C1.65410167 22 -0.86541711 21.89408527 -3.56640625 19.765625 C-5.67005044 17.44022914 -6.91211131 15.4614156 -7.5 12.375 C-6.90632189 9.55502895 -5.99180255 8.06841034 -4 6 C-3.34 6 -2.68 6 -2 6 C-1.855625 5.195625 -1.71125 4.39125 -1.5625 3.5625 C-1 1 -1 1 0 0 Z M1 9 C0.34 9.66 -0.32 10.32 -1 11 C-0.67958603 13.60280568 -0.67958603 13.60280568 0 16 C2.44480079 15.81171228 2.44480079 15.81171228 5 15 C6.36020151 13.03241727 6.36020151 13.03241727 7 11 C4.18490007 8.7226499 4.18490007 8.7226499 1 9 Z " fill="#8A6B59" transform="translate(429,253)"/>
<path d="M0 0 C3.29744513 0.69945806 4.7979897 1.82154528 6.93359375 4.41015625 C8.09419933 8.136311 8.3735131 11.23703799 6.99609375 14.91015625 C6.64546875 15.40515625 6.29484375 15.90015625 5.93359375 16.41015625 C2.96359375 15.91515625 2.96359375 15.91515625 -0.06640625 15.41015625 C-1.05640625 17.88515625 -1.05640625 17.88515625 -2.06640625 20.41015625 C-9.20433728 17.23774246 -9.20433728 17.23774246 -11.06640625 13.41015625 C-11.69028823 8.49708563 -11.82417688 6.54681219 -9.06640625 2.41015625 C-5.71752316 0.17756752 -3.93619749 -0.29019225 0 0 Z M-3.06640625 5.41015625 C-1.41640625 7.06015625 0.23359375 8.71015625 1.93359375 10.41015625 C2.26359375 9.75015625 2.59359375 9.09015625 2.93359375 8.41015625 C1.62158202 6.84765816 1.62158202 6.84765816 -0.06640625 5.41015625 C-1.05640625 5.41015625 -2.04640625 5.41015625 -3.06640625 5.41015625 Z M-6.06640625 9.41015625 C-5.01765627 12.03203119 -4.41709312 13.20386986 -1.94140625 14.66015625 C-1.32265625 14.90765625 -0.70390625 15.15515625 -0.06640625 15.41015625 C-1.70810153 13.38960821 -3.37552403 11.38972567 -5.06640625 9.41015625 C-5.39640625 9.41015625 -5.72640625 9.41015625 -6.06640625 9.41015625 Z " fill="#8E6C5B" transform="translate(576.06640625,234.58984375)"/>
<path d="M0 0 C2.4375 2.25 2.4375 2.25 4 5 C4 6.32 4 7.64 4 9 C4.99 9.33 5.98 9.66 7 10 C7.33 10.99 7.66 11.98 8 13 C2.45752952 16.54628896 -2.53432978 19.59441952 -9 21 C-11.71575512 15.65335711 -13.96354903 11.14262509 -13 5 C-9.21254694 0.20255946 -6.04522761 -0.62536837 0 0 Z M-5 5 C-5.99 5.66 -6.98 6.32 -8 7 C-7.67 8.65 -7.34 10.3 -7 12 C-3.95086772 13.01111093 -3.95086772 13.01111093 -1 12 C-1 10.35 -1 8.7 -1 7 C-2.32 6.34 -3.64 5.68 -5 5 Z " fill="#8B6B5A" transform="translate(604,276)"/>
<path d="M0 0 C2.9375 1.625 2.9375 1.625 5 4 C5.8125 7.25 5.8125 7.25 6 10 C4.02 10.66 2.04 11.32 0 12 C0.99 12.66 1.98 13.32 3 14 C2.67 15.32 2.34 16.64 2 18 C-7.93120763 18.77052473 -7.93120763 18.77052473 -11.6875 16.0625 C-13.46052104 11.9254509 -13.933393 8.42742166 -13 4 C-9.52785665 -0.44868367 -5.31561452 -1.05238429 0 0 Z M-6 5 C-6.33 5.66 -6.66 6.32 -7 7 C-5.02 7 -3.04 7 -1 7 C-1 6.34 -1 5.68 -1 5 C-2.65 5 -4.3 5 -6 5 Z " fill="#8D6C5A" transform="translate(516,214)"/>
<path d="M0 0 C4.67442342 3.05635378 6.73348225 5.55397367 8 11 C4.25 14 4.25 14 2 14 C0.02 10.535 0.02 10.535 -2 7 C-3.65 7.33 -5.3 7.66 -7 8 C-6.42647107 11.87132028 -4.51295648 14.08172796 -2 17 C-2.66 18.32 -3.32 19.64 -4 21 C-6.23046875 20.8671875 -6.23046875 20.8671875 -9 20 C-11.23828125 17.3828125 -11.23828125 17.3828125 -13.3125 14.125 C-14.00988281 13.05507812 -14.70726562 11.98515625 -15.42578125 10.8828125 C-17 8 -17 8 -17 5 C-13.25 3.875 -13.25 3.875 -11 5 C-10.67 4.01 -10.34 3.02 -10 2 C-6.75240832 -0.28534229 -3.88587197 -0.54402208 0 0 Z " fill="#896858" transform="translate(456,237)"/>
<path d="M0 0 C0.66 0.33 1.32 0.66 2 1 C2 1.66 2 2.32 2 3 C2.7425 2.67 3.485 2.34 4.25 2 C7 1 7 1 11 1 C11.33 2.65 11.66 4.3 12 6 C10.02 6.66 8.04 7.32 6 8 C6.66 9.98 7.32 11.96 8 14 C6.02 14.99 6.02 14.99 4 16 C2.68 14.68 1.36 13.36 0 12 C-0.99 12.33 -1.98 12.66 -3 13 C-3 14.32 -3 15.64 -3 17 C-2.34 17 -1.68 17 -1 17 C-1.33 18.65 -1.66 20.3 -2 22 C-4.79298978 21.09416548 -6.74680441 20.22869279 -8.9375 18.25 C-10 16 -10 16 -9.5 13.0625 C-7.81750739 9.62741091 -5.7217597 7.65197099 -3 5 C-2.29485154 2.85266073 -2.29485154 2.85266073 -2 1 C-1.34 0.67 -0.68 0.34 0 0 Z " fill="#8B6959" transform="translate(591,252)"/>
<path d="M0 0 C2.31 0 4.62 0 7 0 C7.33 2.97 7.66 5.94 8 9 C9.2065625 8.7215625 9.2065625 8.7215625 10.4375 8.4375 C11.7059375 8.2209375 11.7059375 8.2209375 13 8 C14 9 14 9 14.0625 12.5625 C14.041875 13.696875 14.02125 14.83125 14 16 C11.21398777 16.92867074 9.38933911 17.16342217 6.5 17.1875 C5.33984375 17.20876953 5.33984375 17.20876953 4.15625 17.23046875 C2 17 2 17 -1 15 C-1.328125 12.03125 -1.328125 12.03125 -1.25 8.5 C-1.23453125 7.3346875 -1.2190625 6.169375 -1.203125 4.96875 C-1 2 -1 2 0 0 Z " fill="#92705D" transform="translate(298,617)"/>
<path d="M0 0 C5.61 0 11.22 0 17 0 C17.33 1.65 17.66 3.3 18 5 C11.84629161 6.823321 6.40353322 7.2361959 0 7 C0 4.69 0 2.38 0 0 Z " fill="#8D6D5C" transform="translate(286,599)"/>
<path d="M0 0 C1.32 0.66 2.64 1.32 4 2 C3.72903553 5.88382414 3.21461548 7.73173064 0.75 10.8125 C-2.01530481 13.01217428 -3.53245088 13.7027815 -7 14 C-9 11 -9 11 -8.87890625 9.046875 C-7.7281282 6.3668408 -6.17748679 5.09887799 -3.9375 3.25 C-3.20402344 2.63640625 -2.47054688 2.0228125 -1.71484375 1.390625 C-1.14894531 0.93171875 -0.58304687 0.4728125 0 0 Z " fill="#896758" transform="translate(269,582)"/>
<path d="M0 0 C0.56203125 0.22171875 1.1240625 0.4434375 1.703125 0.671875 C1.39481074 4.06333189 1.04311934 6.20595683 -0.984375 8.984375 C-3.76279317 11.01186934 -5.90541811 11.36356074 -9.296875 11.671875 C-11.296875 8.671875 -11.296875 8.671875 -11.296875 5.671875 C-9.46875 4.03125 -9.46875 4.03125 -7.046875 2.421875 C-5.86351562 1.60976563 -5.86351562 1.60976563 -4.65625 0.78125 C-2.296875 -0.328125 -2.296875 -0.328125 0 0 Z " fill="#876858" transform="translate(465.296875,582.328125)"/>
<path d="M0 0 C-0.14021805 2.64624284 -0.28689776 5.29184578 -0.4375 7.9375 C-0.49647461 9.06961914 -0.49647461 9.06961914 -0.55664062 10.22460938 C-0.88671875 15.88671875 -0.88671875 15.88671875 -2 17 C-3.66617115 17.04063832 -5.33388095 17.042721 -7 17 C-6.91297874 14.72844502 -6.80480478 12.45769257 -6.6875 10.1875 C-6.62949219 8.92292969 -6.57148437 7.65835938 -6.51171875 6.35546875 C-6 3 -6 3 -4.64453125 1.05078125 C-3 0 -3 0 0 0 Z " fill="#876959" transform="translate(535,216)"/>
<path d="M0 0 C3 2 3 2 3.8125 5.875 C4.1221501 9.15014529 3.96077495 11.23184713 2 14 C-3.75 13.25 -3.75 13.25 -6 11 C-5.625 8.375 -5.625 8.375 -5 6 C-4.01 6 -3.02 6 -2 6 C-2 5.34 -2 4.68 -2 4 C-2.66 3.67 -3.32 3.34 -4 3 C-2.68 3 -1.36 3 0 3 C0 2.01 0 1.02 0 0 Z " fill="#896957" transform="translate(580,237)"/>
<path d="M0 0 C3.99500618 1.3697164 6.80009492 3.25722422 10 6 C8.02 8.97 8.02 8.97 6 12 C2.52224694 10.12013348 -0.07765153 8.52430553 -2 5 C-1.75203633 2.83031791 -1.55766393 1.55766393 0 0 Z " fill="#856755" transform="translate(481,606)"/>
<path d="M0 0 C3.48539917 0.64544429 6.02819057 2.10134397 9 4 C8.67 5.65 8.34 7.3 8 9 C2.58461538 9.36923077 2.58461538 9.36923077 -0.375 7.5 C-0.91125 7.005 -1.4475 6.51 -2 6 C-1.34 4.02 -0.68 2.04 0 0 Z " fill="#866758" transform="translate(386,626)"/>
<path d="M0 0 C1.51056694 0.89914699 3.00825429 1.81996101 4.5 2.75 C5.3353125 3.26046875 6.170625 3.7709375 7.03125 4.296875 C7.6809375 4.85890625 8.330625 5.4209375 9 6 C9 11.30479934 7.4637943 12.18982627 4 16 C3.67 15.01 3.34 14.02 3 13 C0.98491642 12.26676204 0.98491642 12.26676204 -1 12 C0.65 10.35 2.3 8.7 4 7 C3.01 5.824375 3.01 5.824375 2 4.625 C0 2 0 2 0 0 Z " fill="#826352" transform="translate(434,256)"/>
<path d="M0 0 C0.763125 0.20625 1.52625 0.4125 2.3125 0.625 C1.9825 1.285 1.6525 1.945 1.3125 2.625 C2.9625 2.955 4.6125 3.285 6.3125 3.625 C6.3125 3.955 6.3125 4.285 6.3125 4.625 C4.6625 4.955 3.0125 5.285 1.3125 5.625 C1.3125 6.285 1.3125 6.945 1.3125 7.625 C0.69375 7.74875 0.075 7.8725 -0.5625 8 C-2.87870832 8.49697356 -2.87870832 8.49697356 -4.6875 10.625 C-6.57878342 8.73371658 -5.9241852 6.05432274 -6.015625 3.53515625 C-5.85320312 2.58962891 -5.85320312 2.58962891 -5.6875 1.625 C-2.6875 -0.375 -2.6875 -0.375 0 0 Z " fill="#94705F" transform="translate(508.6875,217.375)"/>
<path d="M0 0 C1.67542976 0.28604898 3.34385343 0.61781233 5 1 C5 3.31 5 5.62 5 8 C2.11788698 8.96070434 0.30149956 9.10581883 -2.6875 9.0625 C-3.89986328 9.04896484 -3.89986328 9.04896484 -5.13671875 9.03515625 C-6.05904297 9.01775391 -6.05904297 9.01775391 -7 9 C-7 8.67 -7 8.34 -7 8 C-3.535 7.505 -3.535 7.505 0 7 C-0.185625 6.030625 -0.37125 5.06125 -0.5625 4.0625 C-0.706875 3.051875 -0.85125 2.04125 -1 1 C-0.67 0.67 -0.34 0.34 0 0 Z " fill="#89675A" transform="translate(307,625)"/>
<path d="M0 0 C0 4.14961008 -1.77458506 5.44261058 -4.4375 8.5625 C-7.53619574 12.06990101 -7.53619574 12.06990101 -10 16 C-10.99 15.67 -11.98 15.34 -13 15 C-11.58611621 13.24775086 -10.16877217 11.49829345 -8.75 9.75 C-7.96109375 8.77546875 -7.1721875 7.8009375 -6.359375 6.796875 C-4.33534195 4.39752456 -2.25877651 2.17588563 0 0 Z " fill="#846458" transform="translate(324,427)"/>
<path d="M0 0 C2.475 0.99 2.475 0.99 5 2 C4.01 3.485 4.01 3.485 3 5 C2.34 5 1.68 5 1 5 C0.67 5.66 0.34 6.32 0 7 C-0.99 6.34 -1.98 5.68 -3 5 C-1.125 1.125 -1.125 1.125 0 0 Z " fill="#816455" transform="translate(414,275)"/>
<path d="M0 0 C1.65 0.33 3.3 0.66 5 1 C4.67 3.31 4.34 5.62 4 8 C3.67 7.01 3.34 6.02 3 5 C2.67 4.34 2.34 3.68 2 3 C0.35 4.65 -1.3 6.3 -3 8 C-2.45276317 4.62537285 -1.9451 2.91765 0 0 Z " fill="#826356" transform="translate(389,574)"/>
<path d="M0 0 C1.65 0 3.3 0 5 0 C5 1.65 5 3.3 5 5 C3.35 5 1.7 5 0 5 C0 3.35 0 1.7 0 0 Z " fill="#816555" transform="translate(531,209)"/>
<path d="M0 0 C1.65 0.33 3.3 0.66 5 1 C4.67 2.98 4.34 4.96 4 7 C3.34 5.68 2.68 4.36 2 3 C0.02 3.99 0.02 3.99 -2 5 C-1.34 3.35 -0.68 1.7 0 0 Z " fill="#795F51" transform="translate(560,216)"/>
<path d="M0 0 C0 0.99 0 1.98 0 3 C-2.8125 5.75 -2.8125 5.75 -6 8 C-6.99 7.67 -7.98 7.34 -9 7 C-6.03 4.69 -3.06 2.38 0 0 Z " fill="#856557" transform="translate(148,483)"/>
<path d="M0 0 C0.99 0.66 1.98 1.32 3 2 C2.67 2.99 2.34 3.98 2 5 C-0.0625 5.6875 -0.0625 5.6875 -2 6 C-2 5.34 -2 4.68 -2 4 C-2.66 3.67 -3.32 3.34 -4 3 C-2.68 3 -1.36 3 0 3 C0 2.01 0 1.02 0 0 Z " fill="#81604C" transform="translate(580,237)"/>
<path d="M0 0 C2 3 2 3 2 5 C0.02 5.66 -1.96 6.32 -4 7 C-4.33 5.68 -4.66 4.36 -5 3 C-2 3 -2 3 0 4 C0 2.68 0 1.36 0 0 Z " fill="#7A6357" transform="translate(495,228)"/>
<path d="M0 0 C0.66 0.33 1.32 0.66 2 1 C1.67 2.32 1.34 3.64 1 5 C-2.63 5 -6.26 5 -10 5 C-10 4.67 -10 4.34 -10 4 C-5.545 3.505 -5.545 3.505 -1 3 C-0.67 2.01 -0.34 1.02 0 0 Z " fill="#7B5F54" transform="translate(517,227)"/>
<path d="M0 0 C-4.95 2.475 -4.95 2.475 -10 5 C-9 2 -9 2 -6.125 0.25 C-3 -1 -3 -1 0 0 Z " fill="#7C6353" transform="translate(228,459)"/>
<path d="M0 0 C2 3 2 3 3 6 C1.02 6.99 1.02 6.99 -1 8 C-1.33 7.01 -1.66 6.02 -2 5 C-1.34 5 -0.68 5 0 5 C0 3.35 0 1.7 0 0 Z " fill="#7B5D52" transform="translate(596,260)"/>
</svg>
