<?xml version="1.0" encoding="UTF-8"?>
<svg viewBox="125 145 789 921" version="1.1" xmlns="http://www.w3.org/2000/svg" width="1038" height="1212">
<path d="M0 0 C3.12209822 3.12209822 4.24869597 5.80234952 4.5625 10.125 C3.66137967 26.00061995 -9.32690948 38.84198368 -20.19921875 49.20703125 C-20.79347656 49.79871094 -21.38773438 50.39039063 -22 51 C-22 51.33 -22 51.66 -22 52 C-21.24074219 51.96519531 -20.48148438 51.93039062 -19.69921875 51.89453125 C-18.20841797 51.85392578 -18.20841797 51.85392578 -16.6875 51.8125 C-15.70136719 51.77769531 -14.71523438 51.74289062 -13.69921875 51.70703125 C-11 52 -11 52 -9.14453125 53.13671875 C-7.37034868 56.02506375 -7.42343113 57.66239712 -8 61 C-9.67385779 63.43752766 -11.71247742 65.37083148 -13.875 67.375 C-14.43058594 67.92027344 -14.98617187 68.46554687 -15.55859375 69.02734375 C-19.69055451 73 -19.69055451 73 -22 73 C-22.33 74.32 -22.66 75.64 -23 77 C-22.40832031 76.95359375 -21.81664062 76.9071875 -21.20703125 76.859375 C-16.87553196 76.66152511 -14.66846056 76.56345433 -10.9375 79 C-10.298125 79.66 -9.65875 80.32 -9 81 C-9.26603201 85.41774369 -11.0224983 87.39430077 -14.25585938 90.30078125 C-14.81080078 90.77902344 -15.36574219 91.25726562 -15.9375 91.75 C-16.48857422 92.24371094 -17.03964844 92.73742187 -17.60742188 93.24609375 C-21.63228513 96.81614256 -21.63228513 96.81614256 -24 98 C-24.40729228 100.32156597 -24.74438677 102.6568787 -25 105 C-24.05125 104.505 -23.1025 104.01 -22.125 103.5 C-19 102 -19 102 -17 102 C-17 101.34 -17 100.68 -17 100 C-13.80925528 98.40462764 -10.47169561 98.62264178 -7 99 C-4.5 100.1875 -4.5 100.1875 -3 102 C-2.375 104.375 -2.375 104.375 -3 107 C-5.83182142 110.07454897 -8.09161959 111.67275014 -12.046875 113.09765625 C-16.9336317 115.02871333 -20.71071822 116.56220813 -23.21191406 121.29150391 C-25.39940058 126.8664287 -26.8893796 132.62790291 -28.33300781 138.43261719 C-29.54298633 143.09006013 -31.29618463 147.50192743 -33 152 C-28.38 153.32 -23.76 154.64 -19 156 C-18.34 154.35 -17.68 152.7 -17 151 C-15.70228618 148.79118293 -14.36610506 146.60468504 -13 144.4375 C-8.44801622 137.55662027 -8.44801622 137.55662027 -6.375 129.75 C-6.25125 128.5125 -6.1275 127.275 -6 126 C-2.46277016 125.09512725 -0.6285798 124.71428191 2.75 126.25 C5 128 5 128 7 131 C8.30438603 141.86988358 1.19071995 149.82610569 -5 158 C-5.66 158.99 -6.32 159.98 -7 161 C-6.47792969 161.23074219 -5.95585937 161.46148438 -5.41796875 161.69921875 C5.49387619 166.53406423 16.3199804 171.47260354 26.93115234 176.93896484 C29.14167357 178.07265912 31.3617906 179.18625476 33.58203125 180.30078125 C35.18015941 181.11626333 36.77780809 181.93268569 38.375 182.75 C39.18533691 183.15484619 39.99567383 183.55969238 40.83056641 183.97680664 C44.97016304 186.11764972 48.49854898 188.28972382 51.94140625 191.4453125 C58.89603827 197.59765306 64.55693532 200.58812052 74.046875 200.0078125 C81.91477447 199.36299079 89.70926497 198.08016032 97.48632812 196.75341797 C103.94385065 195.65524285 110.43840061 194.87004952 116.9375 194.0625 C119.48570814 193.72940415 122.03388412 193.39606226 124.58203125 193.0625 C173.18646276 186.79817613 222.10199507 182.21223387 271 179 C272.06992187 178.92797363 273.13984375 178.85594727 274.2421875 178.78173828 C287.1299527 177.94977125 300.03637463 177.88329282 312.94683838 177.82577515 C314.83613555 177.817023 316.72542236 177.80555033 318.61468506 177.79116821 C337.17256324 177.66630982 337.17256324 177.66630982 346 180 C346.33 181.65 346.66 183.3 347 185 C344 187 344 187 341 187 C341.33 185.68 341.66 184.36 342 183 C327.79280147 182.03323797 313.7968363 181.90779919 299.5859375 182.76171875 C298.82138874 182.80598558 298.05683998 182.85025242 297.26912308 182.89586067 C278.85406394 183.96754599 260.48176551 185.5121127 242.11301804 187.18787003 C239.32549409 187.44201354 236.53776803 187.69385921 233.75003052 187.94564819 C191.15207392 191.81039506 148.72191429 196.98177632 106.30340576 202.44683838 C102.35550604 202.95522914 98.40662584 203.45565205 94.45751953 203.95458984 C92.34795521 204.2234245 90.2384149 204.49244766 88.12890625 204.76171875 C87.21326401 204.87659134 86.29762177 204.99146393 85.35423279 205.1098175 C82.10979631 205.52850686 79.11186877 205.96271041 76 207 C76.86882812 207.71285156 77.73765625 208.42570313 78.6328125 209.16015625 C96.34272708 223.82397578 96.34272708 223.82397578 97.5 232.9375 C97.37276065 236.36023858 97.02721159 236.96598551 94.75 239.8125 C87.27369975 245.05672639 76.40858319 245.5647988 67.5625 246.1875 C66.48863037 246.26718018 65.41476074 246.34686035 64.30834961 246.42895508 C53.89801857 247.10581926 43.49150112 247.184086 33.0625 247.1875 C32.23533478 247.18849701 31.40816956 247.18949402 30.55593872 247.19052124 C28.19475172 247.19019826 25.83380302 247.18121002 23.47265625 247.16796875 C22.76129517 247.16676025 22.04993408 247.16555176 21.3170166 247.16430664 C18.27116428 247.13519723 15.91348525 246.97116175 13 246 C12.67 245.01 12.34 244.02 12 243 C14.31020217 240.68979783 15.02818785 240.65035644 18.171875 240.25390625 C19.04932373 240.14046875 19.92677246 240.02703125 20.83081055 239.91015625 C21.79414307 239.79542969 22.75747559 239.68070313 23.75 239.5625 C24.75264893 239.43617188 25.75529785 239.30984375 26.78833008 239.1796875 C32.77682554 238.44493625 38.77101986 237.81617795 44.77734375 237.24609375 C46.74719238 237.05841431 46.74719238 237.05841431 48.75683594 236.86694336 C51.31782266 236.62786491 53.87966783 236.39775882 56.44238281 236.17797852 C65.25696329 235.36679536 73.59422528 233.80192491 82 231 C80.59352785 225.58358599 77.05425669 223.19566093 72.8125 219.9375 C71.84086914 219.1630957 71.84086914 219.1630957 70.84960938 218.37304688 C68.93006055 216.86770639 66.98304813 215.42045806 65 214 C64.4129126 213.57799316 63.8258252 213.15598633 63.22094727 212.72119141 C58.78087581 209.83555254 55.35333716 209.67266241 50.3125 210.5 C49.54832764 210.60530029 48.78415527 210.71060059 47.99682617 210.8190918 C46.27760912 211.05931485 44.55995086 211.31087696 42.84375 211.57177734 C39.79511833 212.03085186 36.74261791 212.44964405 33.6875 212.86328125 C16.75977195 215.1816786 -0.10560789 217.88482887 -16.96264648 220.66467285 C-18.99373661 220.99896911 -21.02513268 221.33133891 -23.05664062 221.66308594 C-33.71093835 223.40396038 -44.35719184 225.19027601 -55 227 C-55.93859863 227.15919922 -56.87719727 227.31839844 -57.84423828 227.48242188 C-89.12873432 232.79381113 -120.25421815 238.64344557 -151.25964355 245.4029541 C-153.90588507 245.97949503 -156.55297381 246.55200189 -159.20019531 247.12402344 C-180.11477258 251.66064829 -200.69507776 256.9579921 -221.17333984 263.19091797 C-229.28796054 265.62772183 -236.42591166 267.7666451 -245 267 C-245.33 265.02 -245.66 263.04 -246 261 C-243.04537698 258.53000906 -240.58644485 257.39440342 -236.86328125 256.45703125 C-235.82985596 256.19237061 -234.79643066 255.92770996 -233.73168945 255.6550293 C-232.60335693 255.37699463 -231.47502441 255.09895996 -230.3125 254.8125 C-229.11262451 254.51061768 -227.91274902 254.20873535 -226.67651367 253.89770508 C-224.09787586 253.25167938 -221.51860698 252.60958255 -218.9375 251.97363281 C-215.14167271 251.03776827 -211.35219944 250.07757712 -207.5625 249.1171875 C-171.04335211 239.96462424 -134.03574566 232.72220747 -97 226 C-96.23780151 225.86118408 -95.47560303 225.72236816 -94.69030762 225.5793457 C-68.29226989 220.77568919 -41.81432996 216.52741689 -15.29707336 212.43817139 C-9.30848494 211.51434685 -3.32168281 210.58028768 2.6631012 209.63212585 C6.21791153 209.06927122 9.77342584 208.51095304 13.32907104 207.95339966 C14.95138153 207.6980428 16.57340582 207.44085916 18.19509888 207.18161011 C27.79937621 205.64825253 37.27668276 204.50890736 47 204 C43.28606073 199.94951291 38.49515073 197.66591125 33.75 195 C32.73381592 194.42765625 31.71763184 193.8553125 30.6706543 193.265625 C20.0135499 187.33836368 9.08447816 182.07202901 -2 177 C-2.68288086 176.67966797 -3.36576172 176.35933594 -4.06933594 176.02929688 C-5.72595178 175.25273056 -7.39366435 174.4999459 -9.0625 173.75 C-10.31740234 173.18539062 -10.31740234 173.18539062 -11.59765625 172.609375 C-15.44687483 171.63298785 -18.60800874 172.21667412 -22.0546875 174.15625 C-22.65539062 174.5996875 -23.25609375 175.043125 -23.875 175.5 C-27.95815456 178.2352406 -31.12775346 178.73898679 -36 179 C-36 175.24167933 -35.06392776 174.6301838 -32.5625 171.9375 C-29.97320177 169.1815464 -29.97320177 169.1815464 -28 166 C-31.96 165.34 -35.92 164.68 -40 164 C-40.53367187 164.70125 -41.06734375 165.4025 -41.6171875 166.125 C-50.17783178 177.02575119 -59.15455167 185.07376043 -73 188 C-83.98127688 189.19404258 -93.13142303 185.20038046 -102 179 C-102.0825 180.216875 -102.165 181.43375 -102.25 182.6875 C-102.82334984 186.92433191 -103.78276649 189.01817382 -107 192 C-118.97975526 200.61620859 -135.05202065 206.67809785 -150 205 C-156.81071966 203.60109656 -162.30289224 201.88083838 -166.40625 195.9765625 C-173.8652853 183.17188524 -169.05091453 168.54046178 -166 155 C-182.04840993 160.38629937 -195.8218039 188.4851983 -205.1796875 202.05859375 C-205.89560059 203.0945166 -206.61151367 204.13043945 -207.34912109 205.19775391 C-208.75960218 207.24030983 -210.16631508 209.28547413 -211.56884766 211.33349609 C-212.21644043 212.2714502 -212.8640332 213.2094043 -213.53125 214.17578125 C-214.10423828 215.01020752 -214.67722656 215.84463379 -215.26757812 216.7043457 C-219.87741779 222.81290296 -219.87741779 222.81290296 -224 223.5 C-227 223 -227 223 -229.375 221.375 C-231.57928137 218.153358 -231.5563544 216.89006531 -231 213 C-229.21441991 209.63799671 -227.00130836 206.62606687 -224.75 203.5625 C-224.11610352 202.67941162 -223.48220703 201.79632324 -222.82910156 200.88647461 C-217.57912766 193.63529252 -212.04575075 186.63775358 -206.38183594 179.70849609 C-204.16487497 176.96745495 -202.01712767 174.17468752 -199.875 171.375 C-198.68390625 169.81845703 -198.68390625 169.81845703 -197.46875 168.23046875 C-197.07042969 167.70888184 -196.67210937 167.18729492 -196.26171875 166.64990234 C-193.97306665 163.65711773 -191.67320171 160.6729532 -189.375 157.6875 C-188.52860074 156.58727428 -187.68224217 155.48701724 -186.8359375 154.38671875 C-186.23007812 153.59910156 -185.62421875 152.81148437 -185 152 C-190.36440211 153.59703574 -195.07067882 156.06378213 -199.87695312 158.87304688 C-201.66015625 159.83203125 -201.66015625 159.83203125 -205 161 C-208.57350329 159.58436183 -209.68725976 158.58638794 -211.5 155.1875 C-212.1694958 150.91946429 -211.46233521 149.54865957 -209 146 C-207.81491994 144.8906659 -206.5977215 143.8151653 -205.359375 142.765625 C-201.18233954 139.17311032 -197.13854504 135.46104057 -193.125 131.6875 C-192.43535156 131.04031006 -191.74570313 130.39312012 -191.03515625 129.72631836 C-185.58138995 124.58920181 -180.2412014 119.35459278 -175 114 C-178.54518884 115.39759905 -178.54518884 115.39759905 -182 117 C-183.54023996 117.06950541 -185.08334988 117.08452357 -186.625 117.0625 C-187.44226563 117.05347656 -188.25953125 117.04445313 -189.1015625 117.03515625 C-189.72804687 117.02355469 -190.35453125 117.01195312 -191 117 C-192.66197487 114.45815608 -193.00824804 113.14262586 -192.83032227 110.06591797 C-191.35257455 104.60941818 -186.60037824 102.83588636 -181.9375 100.125 C-180.9462915 99.54435791 -179.95508301 98.96371582 -178.93383789 98.36547852 C-170.66503059 93.81466731 -163.36713084 91.53017328 -154 94 C-151.06640625 95.75390625 -151.06640625 95.75390625 -149 98 C-148.48046875 100.515625 -148.48046875 100.515625 -149 103 C-150.36328125 104.921875 -150.36328125 104.921875 -152.3125 106.75 C-153.04726563 107.43964844 -153.78203125 108.12929688 -154.5390625 108.83984375 C-157.95531913 111.83855791 -161.45391344 114.72093089 -164.9921875 117.57421875 C-168.28783038 120.23213333 -171.56056764 122.91388879 -174.8125 125.625 C-175.33932373 126.05594971 -175.86614746 126.48689941 -176.40893555 126.9309082 C-180.39305666 130.26535557 -183.71903235 133.97797991 -187 138 C-183.18347831 135.96578806 -179.37256772 133.92127105 -175.5625 131.875 C-174.49322266 131.30523438 -173.42394531 130.73546875 -172.32226562 130.1484375 C-166.64126553 127.09077384 -161.19182128 123.94000361 -155.94824219 120.17456055 C-152.56563374 118.1352461 -149.93608619 117.93328667 -146 118 C-143.5 119.4375 -143.5 119.4375 -142 121 C-142.0196693 124.18150933 -142.45448051 126.3386729 -144.50195312 128.82080078 C-146.53345542 130.80012054 -148.61825592 132.69159432 -150.75 134.5625 C-152.18282524 135.85487744 -153.61512852 137.14783383 -155.046875 138.44140625 C-155.72556641 139.04742676 -156.40425781 139.65344727 -157.10351562 140.27783203 C-159.48740747 142.44260715 -161.75235242 144.69483388 -164 147 C-163.44570313 147.18175781 -162.89140625 147.36351562 -162.3203125 147.55078125 C-161.59585938 147.80214844 -160.87140625 148.05351563 -160.125 148.3125 C-159.40570313 148.55613281 -158.68640625 148.79976562 -157.9453125 149.05078125 C-156 150 -156 150 -154 153 C-153.12292954 158.79777743 -154.19980928 164.34940809 -155.5 170 C-157.45460309 178.43272941 -157.45460309 178.43272941 -157 187 C-155.07467787 189.46980099 -154.15544368 189.95700494 -151.0625 190.8125 C-141.14752197 191.79149993 -131.77161988 188.21712494 -123 184 C-121.80375 183.443125 -120.6075 182.88625 -119.375 182.3125 C-113.75758608 176.84291276 -114.62510384 166.29474721 -114.375 158.875 C-114.31699219 157.44027344 -114.31699219 157.44027344 -114.2578125 155.9765625 C-114.16479872 153.65121801 -114.07896229 151.32585665 -114 149 C-109.81810551 150.77989724 -108.80631827 152.84546798 -107 157 C-106.33355469 156.52949219 -105.66710937 156.05898438 -104.98046875 155.57421875 C-104.05878906 154.95160156 -103.13710938 154.32898438 -102.1875 153.6875 C-101.29417969 153.07261719 -100.40085937 152.45773437 -99.48046875 151.82421875 C-90.21679955 146.96885004 -81.10746146 146.57411171 -70.8125 146.75 C-69.59369141 146.75515625 -68.37488281 146.7603125 -67.11914062 146.765625 C-60.9969727 146.81877459 -55.0522039 147.0654131 -49 148 C-48.21814659 146.54754505 -47.45028172 145.08756083 -46.6875 143.625 C-46.25824219 142.81289063 -45.82898438 142.00078125 -45.38671875 141.1640625 C-43.51360104 136.89018829 -42.26633117 132.48526685 -41 128 C-41.6705542 128.32798584 -42.3411084 128.65597168 -43.03198242 128.99389648 C-46.08094803 130.48107461 -49.13414306 131.9593602 -52.1875 133.4375 C-53.24259766 133.95376953 -54.29769531 134.47003906 -55.38476562 135.00195312 C-56.91713867 135.74155273 -56.91713867 135.74155273 -58.48046875 136.49609375 C-59.88655396 137.17949829 -59.88655396 137.17949829 -61.32104492 137.87670898 C-63.93541325 138.97291865 -66.18400826 139.68829385 -69 140 C-71.2831838 138.8584081 -73.19012683 137.80987317 -75 136 C-75.3984375 132.77734375 -75.3984375 132.77734375 -75 129 C-73.22297784 126.80467538 -71.76720489 125.30862351 -69.625 123.5625 C-69.08133789 123.09295898 -68.53767578 122.62341797 -67.97753906 122.13964844 C-66.33730179 120.73496188 -64.6750893 119.36284456 -63 118 C-62.09507812 117.26136719 -61.19015625 116.52273438 -60.2578125 115.76171875 C-58.62462709 114.45160896 -56.98430563 113.15032998 -55.3359375 111.859375 C-51.78155623 109.03013506 -48.3863299 106.02688706 -45 103 C-45.72445312 103.34933594 -46.44890625 103.69867187 -47.1953125 104.05859375 C-57.69405099 109 -57.69405099 109 -62 109 C-64.375 108.0625 -64.375 108.0625 -66 106 C-66.51369446 102.80367889 -66.78847323 101.04481145 -66 98 C-63.73863682 95.26777244 -60.98393609 93.41802654 -58.0625 91.4375 C-57.28430908 90.87667725 -56.50611816 90.31585449 -55.7043457 89.73803711 C-53.48324792 88.13828058 -51.24333256 86.56832887 -49 85 C-47.21838853 83.70216815 -45.4444522 82.39352439 -43.6875 81.0625 C-43.05199219 80.59972656 -42.41648437 80.13695312 -41.76171875 79.66015625 C-39.36212183 77.3988953 -37.75085422 74.77894963 -36 72 C-36.70084717 72.33322266 -37.40169434 72.66644531 -38.1237793 73.00976562 C-41.30708291 74.51646788 -44.49711919 76.00834579 -47.6875 77.5 C-48.79029297 78.02464844 -49.89308594 78.54929687 -51.02929688 79.08984375 C-52.09599609 79.58613281 -53.16269531 80.08242188 -54.26171875 80.59375 C-55.24100342 81.05458984 -56.22028809 81.51542969 -57.22924805 81.99023438 C-60.0937915 83.03418113 -61.98393176 83.36862703 -65 83 C-68.24650912 80.547082 -69.74328275 78.94787909 -70.8125 75 C-70 72 -70 72 -66.9375 69.6875 C-65.30083541 68.77502328 -63.65319376 67.88217635 -62 67 C-51.79157643 61.30039318 -43.30796579 55.23220926 -35 47 C-34.35804688 46.40703125 -33.71609375 45.8140625 -33.0546875 45.203125 C-21.81918045 34.64697419 -10.85780186 20.48168214 -9 5 C-10.19625 5.2475 -11.3925 5.495 -12.625 5.75 C-13.29789063 5.88921875 -13.97078125 6.0284375 -14.6640625 6.171875 C-24.70271633 9.73072887 -33.69256696 20.20192047 -38.7265625 29.32421875 C-41.78084156 35.74195236 -44.36648086 42.37529983 -46.1875 49.25 C-46.455625 50.1575 -46.72375 51.065 -47 52 C-49.83215913 53.41607957 -51.86309701 53.29335128 -55 53 C-62.42158482 47.88940689 -65.37449719 39.52319566 -67 31 C-67.05521485 29.00076232 -67.07191748 26.99870655 -67 25 C-63.8125 24.1875 -63.8125 24.1875 -60 24 C-56.07359705 27.01328599 -53.60315205 30.85423933 -51 35 C-47.43025311 32.31649236 -44.71984132 29.59510641 -42 26.0625 C-15.72167146 -6.59958223 -15.72167146 -6.59958223 0 0 Z M-40 105 C-45.2484121 108.39397316 -50.39854212 111.75250041 -55 116 C-55 116.66 -55 117.32 -55 118 C-55.639375 118.28875 -56.27875 118.5775 -56.9375 118.875 C-59.15206079 119.82823451 -59.15206079 119.82823451 -60 122 C-48.13203124 118.58970912 -48.13203124 118.58970912 -38 112 C-37.95919217 110.00041636 -37.95745644 107.99954746 -38 106 C-38.66 105.67 -39.32 105.34 -40 105 Z M-98 164 C-98.76030985 166.58925207 -98.76030985 166.58925207 -99 169 C-97.58833114 169.98635837 -96.17043816 170.96381255 -94.75 171.9375 C-93.56664062 172.75541016 -93.56664062 172.75541016 -92.359375 173.58984375 C-87.17519054 176.6883381 -81.39817535 176.82178097 -75.609375 175.421875 C-68.12052032 172.83139068 -60.66577427 167.74637857 -56.71875 160.71875 C-56.4815625 160.1515625 -56.244375 159.584375 -56 159 C-67.87311884 155.04229372 -88.50859708 154.40947016 -98 164 Z " fill="#9B7661" transform="translate(444,471)"/>
<path d="M0 0 C2.75 -0.3125 2.75 -0.3125 6 0 C10.66632209 4.7924389 11.21888274 7.97208195 11.16015625 14.3984375 C10.81637917 22.12922948 9.8605505 29.81280059 9 37.5 C8.71305886 40.10557963 8.42778674 42.71133103 8.14404297 45.31726074 C7.96817353 46.92793437 7.79020204 48.53838023 7.60986328 50.14855957 C7.2820099 53.11688599 7 56.01091943 7 59 C8.27875 58.690625 9.5575 58.38125 10.875 58.0625 C11.59429688 57.88847656 12.31359375 57.71445312 13.0546875 57.53515625 C15.0585657 57.05153008 15.0585657 57.05153008 17 56 C17.41751279 53.86894513 17.73559025 51.71791163 18 49.5625 C18.77972466 43.22027534 18.77972466 43.22027534 21 41 C23.9375 41.0625 23.9375 41.0625 27 42 C29.25697188 44.87958482 30.18384711 47.4882963 31 51 C31.67546875 50.79503906 32.3509375 50.59007812 33.046875 50.37890625 C33.93890625 50.10949219 34.8309375 49.84007812 35.75 49.5625 C36.63171875 49.29566406 37.5134375 49.02882813 38.421875 48.75390625 C40.60565835 48.11531506 42.78835498 47.53224167 45 47 C45.18175781 45.57107422 45.18175781 45.57107422 45.3671875 44.11328125 C45.53476562 42.85902344 45.70234375 41.60476563 45.875 40.3125 C46.03742188 39.07113281 46.19984375 37.82976563 46.3671875 36.55078125 C46.92478369 33.42204705 47.69008123 30.87851898 49 28 C52.80909391 28.25971095 54.55981301 28.58298075 57.375 31.25 C59.11305534 34.19132443 59.38229016 35.6549611 59 39 C59.721875 38.855625 60.44375 38.71125 61.1875 38.5625 C62.115625 38.376875 63.04375 38.19125 64 38 C64.88300781 37.82339844 65.76601563 37.64679687 66.67578125 37.46484375 C67.44277344 37.31144531 68.20976563 37.15804687 69 37 C69.04898438 36.15179687 69.09796875 35.30359375 69.1484375 34.4296875 C69.69477432 25.85785119 70.67129384 17.48823932 72 9 C72.99 8.67 73.98 8.34 75 8 C75.33 7.01 75.66 6.02 76 5 C79.26189156 5.5623951 80.91134848 6.4140505 83 9 C85.30617665 15.91852994 84.07255045 23.89435328 83 31 C84.35931641 30.47599609 84.35931641 30.47599609 85.74609375 29.94140625 C102.47226174 23.69343027 102.47226174 23.69343027 109.375 26.25 C110.24125 26.8275 111.1075 27.405 112 28 C112.598125 28.391875 113.19625 28.78375 113.8125 29.1875 C116.49568579 33.28288884 116.34159224 37.3078742 115.41015625 41.921875 C110.59086554 58.88246893 102.40464996 72.67710643 88 83 C85.074084 84.462958 83.24382653 84.44523109 80 84 C75.96619688 80.23511709 74.40183098 77.62563377 74 72 C73.34 72 72.68 72 72 72 C71.731875 73.134375 71.46375 74.26875 71.1875 75.4375 C70.795625 76.613125 70.40375 77.78875 70 79 C68.515 79.495 68.515 79.495 67 80 C64.76761116 73.85667041 64.93279241 68.53199703 65.375 62.0625 C65.46007812 60.6074707 65.46007812 60.6074707 65.546875 59.12304688 C65.68728153 56.74783646 65.83857378 54.37385876 66 52 C64.68445015 52.4495045 63.37261642 52.90989716 62.0625 53.375 C60.96615234 53.75785156 60.96615234 53.75785156 59.84765625 54.1484375 C57.81317884 54.85271413 57.81317884 54.85271413 57 57 C54.11943177 78.97285478 54.11943177 78.97285478 61 99 C67.36279683 104.92398326 76.76062176 105.27261062 85.04296875 105.1484375 C111.70575406 103.81001499 146.2709181 96.60069308 166 77 C170.34442341 71.40052094 173.17432217 65.63272193 173.4140625 58.48046875 C173.47207031 56.9480957 173.47207031 56.9480957 173.53125 55.38476562 C173.5621875 54.32966797 173.593125 53.27457031 173.625 52.1875 C173.68300781 50.57584961 173.68300781 50.57584961 173.7421875 48.93164062 C173.83618613 46.28792912 173.92184573 43.6442195 174 41 C177 42 177 42 178.3515625 44.58203125 C178.77179688 45.64808594 179.19203125 46.71414063 179.625 47.8125 C180.05039062 48.87082031 180.47578125 49.92914062 180.9140625 51.01953125 C184.06160146 59.65828027 184.07226122 68.85505926 181.125 77.59765625 C179.12018287 81.87877617 176.3454166 85.66264465 173 89 C172.34 89 171.68 89 171 89 C170.69449219 89.85658203 170.69449219 89.85658203 170.3828125 90.73046875 C168.49143875 93.83467256 165.89253094 95.4259758 162.875 97.3125 C162.25681396 97.70276367 161.63862793 98.09302734 161.00170898 98.49511719 C136.17362242 113.71944758 99.27608215 124.57094395 70.25 117.75 C68.48547031 117.21221497 66.7325583 116.63326102 65 116 C64.2678125 115.73316406 63.535625 115.46632813 62.78125 115.19140625 C53.75904619 111.28756806 48.59962745 104.28520632 44.91015625 95.41796875 C43.32658978 91.21098315 42.88199087 88.08001865 42.90234375 83.58203125 C42.90717773 81.70161133 42.90717773 81.70161133 42.91210938 79.78320312 C42.92467773 77.81770508 42.92467773 77.81770508 42.9375 75.8125 C42.94251683 74.47721519 42.94707941 73.14192859 42.95117188 71.80664062 C42.96297305 68.53771527 42.97943703 65.26888009 43 62 C41.04003641 62.39627064 39.08515504 62.8177428 37.1328125 63.25 C35.49916748 63.59804688 35.49916748 63.59804688 33.83251953 63.953125 C30.91702599 64.73149218 30.91702599 64.73149218 29.58618164 66.95825195 C28.76788009 69.30753305 28.34661517 71.53642337 28 74 C27.69021915 75.77131103 27.37763047 77.54213288 27.0625 79.3125 C26.84400391 80.68728516 26.84400391 80.68728516 26.62109375 82.08984375 C25.92705152 85.34180263 24.81629469 88.27306653 23.625 91.375 C22.02188069 95.68964692 22.02188069 95.68964692 23.1875 100 C26.28954889 102.20590143 29.33082836 103.65559395 32.87890625 105.0078125 C35.14732944 106.06891653 36.41546894 107.07351847 38 109 C39 111.875 39 111.875 39 115 C37.125 118 37.125 118 34 120 C27.69762671 120.23116813 22.8737021 116.9202322 18.04296875 113.2421875 C15.82886158 111.65364517 15.82886158 111.65364517 12 112 C9.72967576 113.67905058 9.72967576 113.67905058 7.5625 115.875 C2.8397555 120.45811554 -0.9481773 122.28451567 -7.5625 122.4375 C-17.74290252 122.24943838 -25.82974636 118.00729333 -33 111 C-31.70796635 108.4159327 -30.68425334 107.99067347 -28 107 C-25.80859375 107.2421875 -25.80859375 107.2421875 -23.4375 107.875 C-17.36720595 109.22693864 -10.72583939 110.61586583 -4.8203125 108.0546875 C-1.11272508 105.60860286 0.90444493 103.42869838 2 99 C1.01341355 96.62689855 1.01341355 96.62689855 -0.75 94.5 C-3.77805376 90.48146136 -6 87.15217588 -6 82 C-16.2869976 85.02558753 -27.00850206 92.01275309 -33 101 C-32.67338016 102.33499377 -32.34010026 103.66837667 -32 105 C-32.66 105.99 -33.32 106.98 -34 108 C-37.8842416 107.11721782 -39.70412463 106.33480634 -42.375 103.3125 C-44.34246378 99.30190075 -44.83616519 97.40887098 -44 93 C-36.74881484 81.60528046 -21.97425552 72.72131448 -10 67 C-9.34 67 -8.68 67 -8 67 C-8.02175293 66.05092773 -8.04350586 65.10185547 -8.06591797 64.12402344 C-8.21668364 54.46668733 -7.5769122 45.08017762 -6.40087891 35.49853516 C-6.12356874 33.23833458 -5.85950473 30.97688301 -5.59765625 28.71484375 C-2.81968183 5.04049319 -2.81968183 5.04049319 0 0 Z M91 39.25 C89.989375 39.66765625 88.97875 40.0853125 87.9375 40.515625 C82.28970797 43.35996015 82.28970797 43.35996015 79.07421875 48.55078125 C77.29332928 58.29772085 77.29332928 58.29772085 80 67.4375 C80.66 68.283125 81.32 69.12875 82 70 C92.26121858 64.02983646 97.97756577 52.71926552 101.0625 41.5 C101.39883798 40.00516455 101.72225927 38.50682326 102 37 C97.78670873 36.72117925 94.87001448 37.61116734 91 39.25 Z M6 74 C6.11509661 75.41750563 6.24253658 76.83401169 6.375 78.25 C6.44460938 79.03890625 6.51421875 79.8278125 6.5859375 80.640625 C7.01507113 83.085877 7.78600638 84.84836903 9 87 C9.66 87 10.32 87 11 87 C13.62875405 81.62819824 14.6083965 76.95507399 15 71 C11.30581799 71 9.22163822 72.28179295 6 74 Z " fill="#9B7561" transform="translate(642,508)"/>
<path d="M0 0 C3.81365772 1.22037047 5.51551904 3.01773604 8.125 6 C8.62 6.495 8.62 6.495 9.125 7 C11.10807944 17.34356205 5.46021792 25.95127562 -0.00390625 34.22265625 C-7.74537636 44.79349615 -17.25078811 55.2862914 -27.875 63 C-26.95267578 63.47179687 -26.95267578 63.47179687 -26.01171875 63.953125 C-25.20347656 64.38109375 -24.39523438 64.8090625 -23.5625 65.25 C-22.76199219 65.66765625 -21.96148437 66.0853125 -21.13671875 66.515625 C-17.65509556 68.80062813 -16.18212857 71.07861428 -14.875 75 C-14.52306285 81.40732627 -14.91883447 87.66540333 -15.875 94 C-15.05515625 93.50628906 -14.2353125 93.01257813 -13.390625 92.50390625 C-12.31296875 91.86324219 -11.2353125 91.22257813 -10.125 90.5625 C-9.05765625 89.92441406 -7.9903125 89.28632812 -6.890625 88.62890625 C-2.92842365 86.48870164 -1.14026816 85.69633564 3.25 86.75 C6.125 88 6.125 88 8.125 91 C7.74568453 94.03452373 6.87459319 95.37561021 5.125 98 C4.57808625 99.58878445 4.08201471 101.19556208 3.625 102.8125 C2.55102007 106.57726659 1.38098482 110.29159655 0.125 114 C12.10910859 100.14860007 11.30403291 86.40946639 11.1875 68.6875 C11.18246607 67.34961108 11.17790657 66.0117203 11.17382812 64.67382812 C11.16218676 61.44916915 11.14583703 58.2246104 11.125 55 C6.91896931 56.07937896 3.5133165 57.12233795 0 59.6875 C-3.50981457 62.02282409 -3.50981457 62.02282409 -6.875 61.8125 C-7.535 61.544375 -8.195 61.27625 -8.875 61 C-6.36514171 52.96845348 -0.69863899 48.44712895 6.25 44 C9.92621308 42.72131719 12.25492217 42.38893508 16.125 43 C21.35609391 46.08147435 23.46704603 49.18168455 25.125 55 C25.57118746 59.49037059 25.50539266 63.9894693 25.5 68.5 C25.50045319 69.1640686 25.50090637 69.82813721 25.50137329 70.5123291 C25.46606805 88.45588806 23.39292938 106.22179565 21.125 124 C20.98126953 125.13244141 20.83753906 126.26488281 20.68945312 127.43164062 C20.33585814 130.12494369 19.96072991 132.81297592 19.5625 135.5 C19.46026123 136.20995117 19.35802246 136.91990234 19.25268555 137.65136719 C18.41035406 142.7788265 16.82917172 147.11953465 13.3125 151 C11.125 152 11.125 152 8.125 151.5 C4.16095877 149.51797938 1.97705039 147.33345619 0.4375 143.1171875 C-0.05530105 141.42660613 -0.47167492 139.71413159 -0.875 138 C-1.41125 138.33 -1.9475 138.66 -2.5 139 C-5.59546073 140.30335189 -7.54074641 140.47632194 -10.875 140 C-13.8125 137.9375 -13.8125 137.9375 -15.875 135 C-15.86655105 128.30842847 -12.66543074 123.9662205 -9 118.5625 C-5.15040139 112.83382178 -2.03508967 107.57845491 0.125 101 C-0.85082031 101.49371094 -1.82664062 101.98742187 -2.83203125 102.49609375 C-4.11713405 103.14333531 -5.40229325 103.79046488 -6.6875 104.4375 C-7.33009766 104.76298828 -7.97269531 105.08847656 -8.63476562 105.42382812 C-11.35765466 106.79232676 -13.97949794 108.03483265 -16.875 109 C-17.56602991 114.65462714 -17.95368879 120.26490778 -18.0859375 125.9609375 C-18.12847656 127.78044922 -18.12847656 127.78044922 -18.171875 129.63671875 C-18.22444481 132.15218401 -18.26856384 134.66783857 -18.3046875 137.18359375 C-18.335625 138.38886719 -18.3665625 139.59414063 -18.3984375 140.8359375 C-18.41825684 141.92438965 -18.43807617 143.0128418 -18.45849609 144.13427734 C-18.92236853 147.32591545 -19.61743617 148.72636333 -21.875 151 C-24.6875 151.6875 -24.6875 151.6875 -27.875 151 C-31.18544614 148.11868577 -33.48588839 145.16733484 -34.875 141 C-34.89015983 138.25000681 -34.82593939 135.55601715 -34.6875 132.8125 C-34.64560547 131.9575293 -34.60371094 131.10255859 -34.56054688 130.22167969 C-33.97778062 120.35236176 -32.66839471 110.5636243 -31.33520508 100.77270508 C-30.42615284 93.96691419 -29.63634478 87.17514197 -29.125 80.328125 C-29.02703125 79.04325195 -28.9290625 77.75837891 -28.828125 76.43457031 C-28.87423306 73.05619451 -29.38434114 70.99708431 -30.875 68 C-33.95007945 68.60822951 -36.01077789 69.58155083 -38.5546875 71.3984375 C-39.23660156 71.87796875 -39.91851562 72.3575 -40.62109375 72.8515625 C-41.67490234 73.60566406 -41.67490234 73.60566406 -42.75 74.375 C-56.07184054 83.86588454 -56.07184054 83.86588454 -64.875 83 C-66.9375 81.75 -66.9375 81.75 -67.875 80 C-67.671875 77.96484375 -67.671875 77.96484375 -66.875 76 C-64.7984556 75.35320748 -62.71927745 74.71388549 -60.62890625 74.11328125 C-54.56246258 71.66088913 -48.67952672 66.89335788 -44.1484375 62.21875 C-42.875 61 -42.875 61 -40.875 61 C-40.875 60.34 -40.875 59.68 -40.875 59 C-39.58984375 57.7734375 -39.58984375 57.7734375 -37.8125 56.375 C-24.66926522 45.41354219 -11.88554303 28.06487648 -5.875 12 C-5.62435012 9.50969953 -5.62435012 9.50969953 -5.875 7.25 C-6.19565925 3.4288106 -6.19565925 3.4288106 -4.5546875 1.234375 C-2.875 0 -2.875 0 0 0 Z M7.125 116 C6.25583113 117.40751221 5.40514851 118.8264521 4.5625 120.25 C4.08683594 121.03890625 3.61117187 121.8278125 3.12109375 122.640625 C1.99477849 125.30844625 2.1080687 126.34501768 3.125 129 C4.115 129 5.105 129 6.125 129 C7.115 124.71 8.105 120.42 9.125 116 C8.465 116 7.805 116 7.125 116 Z " fill="#9B7561" transform="translate(197.875,512)"/>
<path d="M0 0 C2.99821148 3.87154372 3.28779962 6.38822296 2.75 11.1875 C2.63269531 12.31929687 2.51539063 13.45109375 2.39453125 14.6171875 C2.26433594 15.73351562 2.13414062 16.84984375 2 18 C1.81021581 19.93727759 1.62244156 21.87475411 1.4375 23.8125 C1.2932396 25.20849677 1.14806573 26.60440171 1 28 C1.67804688 27.98839844 2.35609375 27.97679687 3.0546875 27.96484375 C21.91234878 27.78201324 21.91234878 27.78201324 28 33 C32.50430891 37.86952314 33.33141716 41.61951632 33.203125 48.2265625 C31.93700973 65.51390557 25.60139958 89.92085166 12.03515625 101.70703125 C9.22663672 103.45888006 7.11930411 104.04996893 3.8125 103.90234375 C-3.42265658 102.20660393 -7.77351424 96.78577176 -12 91 C-16.16460546 84.2616481 -19.14711434 77.33987313 -18.875 69.3125 C-17.88317391 65.55772978 -16.77610372 63.69898973 -14 61 C-7.12144732 57.63139372 0.91782248 58.09670109 8.125 60.3125 C11.47327758 61.47151916 11.9099761 61.86496415 14 65 C5.64928714 69.09944086 -3.07358197 71.49937314 -12 74 C-11.01440351 80.14926509 -8.39519302 85.08384559 -3.5 89 C-0.78748388 90.08500645 1.11115856 90.07703577 4 90 C12.47217588 77.01219738 19.25234427 60.9445743 19.0625 45.1875 C19.05347656 44.21167969 19.04445313 43.23585938 19.03515625 42.23046875 C19.02355469 41.49441406 19.01195312 40.75835938 19 40 C13.18300866 39.76257178 8.62479428 40.36369621 3 42 C-0.05137632 42.57809278 -1.78515821 42.45926311 -5 42 C-8.34803262 39.68101637 -10.39147579 36.85437851 -11.66015625 32.98828125 C-12.73660918 26.29447624 -11.23162934 19.58565439 -10 13 C-10.66 13 -11.32 13 -12 13 C-13.46416909 15.64657368 -14.91598119 18.29870925 -16.3515625 20.9609375 C-17.32215287 22.75031974 -18.30985152 24.53091517 -19.3359375 26.2890625 C-27.2248337 40.50917477 -28.81964817 57.17034403 -30.56860352 73.0612793 C-32.79316098 92.55552523 -32.79316098 92.55552523 -38 97 C-39.875 98 -39.875 98 -42 98 C-43.11375 96.7625 -43.11375 96.7625 -44.25 95.5 C-46.62627035 92.77907897 -46.62627035 92.77907897 -48.9921875 92.9921875 C-49.69601562 93.11851562 -50.39984375 93.24484375 -51.125 93.375 C-55 94 -55 94 -56.875 93.0625 C-60.1926054 86.98022344 -60.35342493 81.91874355 -58.7578125 75.32421875 C-56.80775312 69.34336653 -53.03923494 65.496612 -48 62 C-46.35 62 -44.7 62 -43 62 C-43.99 55.565 -43.99 55.565 -45 49 C-48.28790436 49.06575809 -50.95645231 49.22163619 -53.66015625 51.23828125 C-62.43732013 60.64398883 -63.16519659 73.90538028 -64.421875 86.0859375 C-64.49776855 86.76043945 -64.57366211 87.43494141 -64.65185547 88.12988281 C-64.86382167 90.02505548 -65.05362665 91.92266819 -65.2421875 93.8203125 C-66.09430857 97.39570708 -67.18791136 98.71162018 -70 101 C-74.33234852 99.99247709 -77.18765223 98.56931506 -79.98999023 95.04248047 C-82.15581535 90.66266589 -81.4102858 85.63528397 -81.1875 80.875 C-80.86985526 72.27255562 -81.34958626 64.45388344 -83 56 C-83.36032007 53.66945076 -83.68136323 51.33666962 -84 49 C-81.15970767 48.94319415 -79.57690294 48.94043512 -77 50 C-73.25479414 54.01330085 -71 57.46264992 -71 63 C-70.34 63 -69.68 63 -69 63 C-68.85304688 62.45472656 -68.70609375 61.90945313 -68.5546875 61.34765625 C-65.77262191 51.99415988 -60.95000352 44.73711594 -53 39 C-49.29125192 37.14562596 -45.04679692 37.53561347 -41 38 C-38.33767261 39.07526097 -36.37757038 40.34603799 -34 42 C-33.7421875 41.1853125 -33.484375 40.370625 -33.21875 39.53125 C-28.02210011 24.47429005 -20.93858075 9.8834525 -9 -1 C-5.14169295 -2.28610235 -3.65631112 -1.67580926 0 0 Z M-44 72 C-46.47460354 75.46444495 -47.3648363 77.74357648 -47 82 C-46.34 82 -45.68 82 -45 82 C-44.34 78.7 -43.68 75.4 -43 72 C-43.33 72 -43.66 72 -44 72 Z " fill="#9B7661" transform="translate(564,531)"/>
<path d="M0 0 C2 1.6875 2 1.6875 3 4 C3.38576871 8.55207075 3.07441692 10.67318773 0.1875 14.23828125 C-8.11732884 22.14699161 -22.34864517 32.29376695 -34.0625 33.25 C-34.701875 33.1675 -35.34125 33.085 -36 33 C-36.33 32.01 -36.66 31.02 -37 30 C-36.34515625 29.47792969 -35.6903125 28.95585938 -35.015625 28.41796875 C-29.66636954 24.10380934 -24.45020135 19.69473827 -19.375 15.0625 C-18.85454102 14.59030029 -18.33408203 14.11810059 -17.79785156 13.6315918 C-15.02366314 11.11313912 -15.02366314 11.11313912 -13 8 C-34.57047182 12.41916543 -59.12750116 20.96815469 -74 38 C-78.71624985 45.16095819 -81.04210464 52.88651508 -83.04296875 61.1640625 C-84 64 -84 64 -87 66 C-89.4375 65.9375 -89.4375 65.9375 -92 65 C-95.02351387 61.72452664 -96.89299492 59.40571352 -97.23364258 54.93066406 C-96.95697681 50.27620336 -95.79241489 46.48333718 -94.26171875 42.109375 C-93.98028519 41.28294495 -93.69885162 40.45651489 -93.40888977 39.6050415 C-92.8146617 37.86869397 -92.21513428 36.13415191 -91.6105957 34.40136719 C-90.68714779 31.74898836 -89.78488646 29.090061 -88.88476562 26.4296875 C-88.30333068 24.73915381 -87.72068984 23.04903429 -87.13671875 21.359375 C-86.73340584 20.16873444 -86.73340584 20.16873444 -86.32194519 18.95404053 C-86.06190201 18.21607239 -85.80185883 17.47810425 -85.53393555 16.71777344 C-85.30965378 16.07048279 -85.08537201 15.42319214 -84.85429382 14.75628662 C-83.85341515 12.69864582 -82.76875672 11.44534949 -81 10 C-78.875 10.1875 -78.875 10.1875 -77 11 C-75.55792059 13.88415883 -75.90605113 16.41721528 -75.9375 19.625 C-75.94652344 20.81351563 -75.95554688 22.00203125 -75.96484375 23.2265625 C-75.97644531 24.14179687 -75.98804688 25.05703125 -76 26 C-75.08734375 25.18208984 -75.08734375 25.18208984 -74.15625 24.34765625 C-57.82028121 10.29391839 -21.68772308 -12.14512492 0 0 Z " fill="#9B7662" transform="translate(322,527)"/>
<path d="M0 0 C7.00783101 3.10782071 12.75901935 7.56763117 17 14 C18.26684561 17.5893959 18.33156276 19.07162427 17.0625 22.625 C11.09637088 29.49508808 0.54008407 31.15030437 -8 33 C-9.32 33 -10.64 33 -12 33 C-12 32.34 -12 31.68 -12 31 C-10.390625 29.66796875 -10.390625 29.66796875 -8.25 28.1875 C-2.40473765 23.98229416 -2.40473765 23.98229416 0.4921875 17.609375 C0.23992893 14.69601859 0.23992893 14.69601859 -2.7734375 12.83203125 C-3.96328631 12.14016604 -5.1644942 11.46755219 -6.375 10.8125 C-12.875 7.125 -12.875 7.125 -15 5 C-15.125 2.375 -15.125 2.375 -15 0 C-9.95840937 -3.09530215 -5.41138446 -1.62197996 0 0 Z " fill="#9A7561" transform="translate(272,495)"/>
<path d="M0 0 C3 2.1875 3 2.1875 5 5 C5.0625 8.125 5.0625 8.125 4 11 C1.03752786 13.67774942 -2.011654 14.87338599 -5.75 16.1875 C-11.9443308 18.47183466 -17.72278079 21.27263811 -23.53027344 24.40893555 C-27.1691316 26.31773205 -29.86315349 27.46937297 -34 27 C-32.38980897 22.90133191 -29.42225167 20.23733544 -26.3125 17.25 C-22.75669456 13.77999147 -19.31653986 10.31550383 -16.125 6.5 C-11.30799305 0.92669969 -7.58030571 -2.34300358 0 0 Z " fill="#997764" transform="translate(518,537)"/>
<path d="M0 0 C2.0625 0.4375 2.0625 0.4375 4 1 C3.67 1.598125 3.34 2.19625 3 2.8125 C1.79212012 5.05386471 1.79212012 5.05386471 2 8 C5.3 8.33 8.6 8.66 12 9 C8.66189518 10.66905241 5.53842155 11.8741386 2 13 C2.60745397 17.85963179 4.72758967 21.7405518 7 26 C6.34 26.33 5.68 26.66 5 27 C5 26.34 5 25.68 5 25 C3.35 25.33 1.7 25.66 0 26 C-5.57716008 13.57460614 -5.57716008 13.57460614 -5 7 C-3.5111211 4.22075938 -2.21243017 2.21243017 0 0 Z " fill="#9B7B68" transform="translate(550,592)"/>
<path d="M0 0 C7.26 0 14.52 0 22 0 C22 0.66 22 1.32 22 2 C23.65 2 25.3 2 27 2 C26.67 2.66 26.34 3.32 26 4 C16.32512593 5.91689094 5.82879794 5.09828798 -4 5 C-4 4.34 -4 3.68 -4 3 C-2.68 2.67 -1.36 2.34 0 2 C0 1.34 0 0.68 0 0 Z " fill="#9A725D" transform="translate(643,656)"/>
<path d="M0 0 C0.74056641 0.00451172 1.48113281 0.00902344 2.24414062 0.01367188 C4.05862899 0.02537825 5.87307534 0.04331102 7.6875 0.0625 C7.1925 0.866875 6.6975 1.67125 6.1875 2.5 C4.60330347 4.71146185 4.60330347 4.71146185 4.6875 6.0625 C-1.9125 6.0625 -8.5125 6.0625 -15.3125 6.0625 C-14.6525 4.4125 -13.9925 2.7625 -13.3125 1.0625 C-9.13108529 -0.54334944 -4.43482456 -0.05152164 0 0 Z " fill="#9C7965" transform="translate(413.3125,686.9375)"/>
<path d="M0 0 C0 0.33 0 0.66 0 1 C-1.98 1.33 -3.96 1.66 -6 2 C-1.71 2.66 2.58 3.32 7 4 C7 4.33 7 4.66 7 5 C3.43798805 5.19766544 -0.12461367 5.38133629 -3.6875 5.5625 C-4.69490234 5.61857422 -5.70230469 5.67464844 -6.74023438 5.73242188 C-8.20493164 5.80493164 -8.20493164 5.80493164 -9.69921875 5.87890625 C-10.59471436 5.9260376 -11.49020996 5.97316895 -12.4128418 6.02172852 C-15.06823177 5.99942695 -17.41958599 5.60392668 -20 5 C-20 4.34 -20 3.68 -20 3 C-24.62 3 -29.24 3 -34 3 C-34 2.67 -34 2.34 -34 2 C-30.20893744 1.65955588 -26.41707386 1.32897241 -22.625 1 C-21.03365234 0.85691406 -21.03365234 0.85691406 -19.41015625 0.7109375 C-12.92001533 0.15350208 -6.51360014 -0.13132994 0 0 Z " fill="#A68A7A" transform="translate(685,653)"/>
<path d="M0 0 C9.40228594 -0.1170409 18.62895894 0.11504503 28 1 C28 1.99 28 2.98 28 4 C19.42 4 10.84 4 2 4 C1.34 2.68 0.68 1.36 0 0 Z " fill="#A58471" transform="translate(715,650)"/>
<path d="M0 0 C0 0.66 0 1.32 0 2 C-3.02107902 2.0543251 -6.04116528 2.09382927 -9.0625 2.125 C-9.91005859 2.14175781 -10.75761719 2.15851562 -11.63085938 2.17578125 C-16.83418201 2.21596135 -21.07469821 1.69745815 -26 0 C-26 -0.33 -26 -0.66 -26 -1 C-7.82468553 -3.3836478 -7.82468553 -3.3836478 0 0 Z " fill="#96705D" transform="translate(702,655)"/>
<path d="M0 0 C0.66 0.33 1.32 0.66 2 1 C0.7770749 6.04456605 -2.44268232 8.33745503 -6.3203125 11.44921875 C-6.87460937 11.96097656 -7.42890625 12.47273437 -8 13 C-8 13.66 -8 14.32 -8 15 C-10.64 15 -13.28 15 -16 15 C-13.27291901 11.36600602 -10.46824827 8.58520053 -6.875 5.8125 C-3.31075141 3.04993676 -3.31075141 3.04993676 0 0 Z " fill="#9A7C6A" transform="translate(393,579)"/>
<path d="M0 0 C-0.33 0.99 -0.66 1.98 -1 3 C-2.98 3 -4.96 3 -7 3 C-6.67 4.32 -6.34 5.64 -6 7 C-8.64 6.67 -11.28 6.34 -14 6 C-14 5.34 -14 4.68 -14 4 C-16.97 3.67 -19.94 3.34 -23 3 C-23 2.67 -23 2.34 -23 2 C-7.25512528 -0.29612756 -7.25512528 -0.29612756 0 0 Z " fill="#9F7D6D" transform="translate(559,666)"/>
<path d="M0 0 C3 1 3 1 4.16796875 2.99609375 C4.50441406 3.80175781 4.84085938 4.60742188 5.1875 5.4375 C5.53167969 6.24058594 5.87585938 7.04367187 6.23046875 7.87109375 C7 10 7 10 7 12 C6.34 12 5.68 12 5 12 C5 11.01 5 10.02 5 9 C4.01 9.33 3.02 9.66 2 10 C1.67 15.28 1.34 20.56 1 26 C0.34 25.67 -0.32 25.34 -1 25 C-0.67 16.75 -0.34 8.5 0 0 Z " fill="#A58779" transform="translate(816,549)"/>
<path d="M0 0 C0.33 1.65 0.66 3.3 1 5 C-2 7 -2 7 -5 7 C-4.67 5.68 -4.34 4.36 -4 3 C-9.61 2.67 -15.22 2.34 -21 2 C-21 1.67 -21 1.34 -21 1 C-20.16855469 0.93941406 -19.33710937 0.87882813 -18.48046875 0.81640625 C-16.85044922 0.69072266 -16.85044922 0.69072266 -15.1875 0.5625 C-14.10855469 0.48128906 -13.02960937 0.40007813 -11.91796875 0.31640625 C-3.1640625 -0.6328125 -3.1640625 -0.6328125 0 0 Z " fill="#A28879" transform="translate(790,651)"/>
<path d="M0 0 C-0.33 1.65 -0.66 3.3 -1 5 C0.65 5 2.3 5 4 5 C4 5.33 4 5.66 4 6 C0.37 6.33 -3.26 6.66 -7 7 C-7.33 5.35 -7.66 3.7 -8 2 C-8.66 1.34 -9.32 0.68 -10 0 C-6.30458414 -0.95024979 -3.69541586 -0.95024979 0 0 Z " fill="#9F806C" transform="translate(352,698)"/>
<path d="M0 0 C4.08327357 -0.0580772 8.16644083 -0.09362249 12.25 -0.125 C13.98830078 -0.15013672 13.98830078 -0.15013672 15.76171875 -0.17578125 C16.87675781 -0.18222656 17.99179687 -0.18867187 19.140625 -0.1953125 C20.68024902 -0.21102295 20.68024902 -0.21102295 22.25097656 -0.22705078 C25.01984288 0.00163889 26.64418792 0.5756701 29 2 C22.86709936 2.82558278 16.74452259 3.15489196 10.5625 3.25 C9.86447266 3.27126953 9.16644531 3.29253906 8.44726562 3.31445312 C3.39354789 3.34889911 3.39354789 3.34889911 1.28491211 1.47949219 C0.86089111 0.99125977 0.43687012 0.50302734 0 0 Z " fill="#8C644D" transform="translate(730,650)"/>
<path d="M0 0 C2.97 0 5.94 0 9 0 C7.5625 3 7.5625 3 5 6 C1.94127109 6.53698855 -0.92553889 6.35474551 -4 6 C-4 4.68 -4 3.36 -4 2 C-2.68 2 -1.36 2 0 2 C0 1.34 0 0.68 0 0 Z " fill="#9A725B" transform="translate(300,707)"/>
<path d="M0 0 C2.97 0 5.94 0 9 0 C8.67 0.99 8.34 1.98 8 3 C5.10452736 3.33675279 2.20868928 3.66951734 -0.6875 4 C-1.50412109 4.09539063 -2.32074219 4.19078125 -3.16210938 4.2890625 C-7.12860052 4.73870522 -11.00002463 5.13034543 -15 5 C-14.67 4.34 -14.34 3.68 -14 3 C-10.83984375 2.5859375 -10.83984375 2.5859375 -6.9375 2.375 C-5.64714844 2.30023437 -4.35679687 2.22546875 -3.02734375 2.1484375 C-2.02832031 2.09945312 -1.02929688 2.05046875 0 2 C0 1.34 0 0.68 0 0 Z " fill="#9C6F58" transform="translate(630,658)"/>
<path d="M0 0 C0.66 0.33 1.32 0.66 2 1 C1.67 2.32 1.34 3.64 1 5 C7.43974581 4.37679879 13.67572401 3.35991738 20 2 C20 2.66 20 3.32 20 4 C13.16914355 6.44166784 7.2484945 7.41640288 0 7 C-0.38133299 5.0085944 -0.71325582 3.00720923 -1 1 C-0.67 0.67 -0.34 0.34 0 0 Z " fill="#957965" transform="translate(199,731)"/>
<path d="M0 0 C0.74507812 0.00451172 1.49015625 0.00902344 2.2578125 0.01367188 C4.0885764 0.02540754 5.91929873 0.0433415 7.75 0.0625 C7.75 0.3925 7.75 0.7225 7.75 1.0625 C5.44 1.3925 3.13 1.7225 0.75 2.0625 C0.75 3.0525 0.75 4.0425 0.75 5.0625 C-1.23 5.0625 -3.21 5.0625 -5.25 5.0625 C-5.25 4.4025 -5.25 3.7425 -5.25 3.0625 C-7.56 3.0625 -9.87 3.0625 -12.25 3.0625 C-12.25 2.4025 -12.25 1.7425 -12.25 1.0625 C-8.15996141 -0.08732602 -4.21822949 -0.04844256 0 0 Z " fill="#95715D" transform="translate(602.25,660.9375)"/>
<path d="M0 0 C1.98 0 3.96 0 6 0 C6.103125 0.639375 6.20625 1.27875 6.3125 1.9375 C6.539375 2.618125 6.76625 3.29875 7 4 C7.99 4.33 8.98 4.66 10 5 C10 5.66 10 6.32 10 7 C2.60045489 7.36391205 2.60045489 7.36391205 -0.0625 5.75 C-1 4 -1 4 -0.6875 1.8125 C-0.460625 1.214375 -0.23375 0.61625 0 0 Z " fill="#96735E" transform="translate(131,588)"/>
<path d="M0 0 C0 0.66 0 1.32 0 2 C2.64 2.33 5.28 2.66 8 3 C8 3.33 8 3.66 8 4 C5.20880221 4.22114415 2.4178788 4.42743301 -0.375 4.625 C-1.1690625 4.68945312 -1.963125 4.75390625 -2.78125 4.8203125 C-4.85028224 4.96058587 -6.92625536 4.98758237 -9 5 C-9.66 4.34 -10.32 3.68 -11 3 C-7.97062848 -0.02937152 -4.18236037 0 0 0 Z " fill="#9E7B67" transform="translate(612,661)"/>
<path d="M0 0 C-0.625 1.9375 -0.625 1.9375 -2 4 C-7.65447845 5.59800478 -10.96353002 4.56003142 -16 2 C-10.61972975 0.80911014 -5.54708616 -0.2919519 0 0 Z M-10 6 C-9.67 6.66 -9.34 7.32 -9 8 C-8.34 8.33 -7.68 8.66 -7 9 C-8.32 9 -9.64 9 -11 9 C-10.67 8.01 -10.34 7.02 -10 6 Z " fill="#A07E6F" transform="translate(316,704)"/>
<path d="M0 0 C0.66 0.99 1.32 1.98 2 3 C-2 7 -6 11 -10 15 C-10 14.34 -10 13.68 -10 13 C-10.66 12.67 -11.32 12.34 -12 12 C-8.04 8.04 -4.08 4.08 0 0 Z " fill="#A08979" transform="translate(418,480)"/>
<path d="M0 0 C0.99 0 1.98 0 3 0 C3.02687279 1.81242052 3.04633715 3.62495233 3.0625 5.4375 C3.07410156 6.44683594 3.08570313 7.45617187 3.09765625 8.49609375 C3 11 3 11 2 12 C1.63239269 14.32817964 1.29758419 16.6618385 1 19 C0.34 18.34 -0.32 17.68 -1 17 C-0.98251781 14.08047432 -0.86055367 11.27702115 -0.625 8.375 C-0.56828125 7.57320312 -0.5115625 6.77140625 -0.453125 5.9453125 C-0.31152018 3.96284502 -0.15697741 1.98130949 0 0 Z " fill="#A17E6C" transform="translate(723,520)"/>
<path d="M0 0 C-1.32 0.33 -2.64 0.66 -4 1 C-3.67 3.31 -3.34 5.62 -3 8 C-2.34 8 -1.68 8 -1 8 C-1.3125 9.9375 -1.3125 9.9375 -2 12 C-2.99 12.33 -3.98 12.66 -5 13 C-6.59138085 8.82262526 -7.21278058 5.46839215 -7 1 C-4.53721199 -0.231394 -2.7204945 -0.07159196 0 0 Z " fill="#9D7D6B" transform="translate(384,495)"/>
<path d="M0 0 C1.5625 1.625 1.5625 1.625 3 4 C2.6875 7.25 2.6875 7.25 2 10 C1.21625 9.979375 0.4325 9.95875 -0.375 9.9375 C-2.98114961 9.81315937 -2.98114961 9.81315937 -5 11 C-3.14285714 2.28571429 -3.14285714 2.28571429 0 0 Z " fill="#9E7260" transform="translate(504,578)"/>
<path d="M0 0 C0.66 0.99 1.32 1.98 2 3 C-5.19750441 11.40346925 -5.19750441 11.40346925 -10.5 12 C-11.655 12 -12.81 12 -14 12 C-13.34 11.484375 -12.68 10.96875 -12 10.4375 C-5.8198802 5.42256725 -5.8198802 5.42256725 0 0 Z " fill="#A08074" transform="translate(386,633)"/>
<path d="M0 0 C0.66 0 1.32 0 2 0 C2.8723412 2.99480917 3.10829766 5.63575911 3.0625 8.75 C3.05347656 9.54921875 3.04445313 10.3484375 3.03515625 11.171875 C3.01775391 12.07679688 3.01775391 12.07679688 3 13 C1.68 13 0.36 13 -1 13 C-1.02708567 11.39592672 -1.04643483 9.7917215 -1.0625 8.1875 C-1.07410156 7.29417969 -1.08570313 6.40085937 -1.09765625 5.48046875 C-1 3 -1 3 0 0 Z " fill="#9F7D6C" transform="translate(594,569)"/>
<path d="M0 0 C0.66 0 1.32 0 2 0 C2.10349817 6.41688675 1.74507544 12.62694402 1 19 C0.34 19 -0.32 19 -1 19 C-1.02690104 16.20826945 -1.04679053 13.41679652 -1.0625 10.625 C-1.07087891 9.8309375 -1.07925781 9.036875 -1.08789062 8.21875 C-1.11328125 2.2265625 -1.11328125 2.2265625 0 0 Z " fill="#9C7D6B" transform="translate(219,610)"/>
<path d="M0 0 C0.33 0.66 0.66 1.32 1 2 C3.32156597 2.40729228 5.6568787 2.74438677 8 3 C4.30827405 6.53790403 0.90609405 6.59115883 -4 7 C-4 4 -4 4 -2 1.8125 C-1.34 1.214375 -0.68 0.61625 0 0 Z " fill="#A08475" transform="translate(412,643)"/>
<path d="M0 0 C4.5 4.5 4.5 4.5 5 8 C4.34 8 3.68 8 3 8 C3 9.32 3 10.64 3 12 C2.34 12 1.68 12 1 12 C0.67 12.99 0.34 13.98 0 15 C0 10.05 0 5.1 0 0 Z " fill="#906E55" transform="translate(331,620)"/>
<path d="M0 0 C-0.66 0.66 -1.32 1.32 -2 2 C-2.69748583 3.31747324 -3.36959957 4.64914193 -4 6 C-3.34 6.33 -2.68 6.66 -2 7 C-2 7.66 -2 8.32 -2 9 C-5.81684226 7.44499019 -8.19195732 4.96404505 -11 2 C-6.97107804 -0.96244261 -4.82799816 -1.2350693 0 0 Z " fill="#997D6E" transform="translate(620,616)"/>
<path d="M0 0 C0.66 0 1.32 0 2 0 C2.22262303 6.7281627 1.95021536 12.53991163 0 19 C-0.33 19 -0.66 19 -1 19 C-2.27567351 12.23893038 -1.48725585 6.68650564 0 0 Z " fill="#9C7E6A" transform="translate(181,587)"/>
<path d="M0 0 C0 0.33 0 0.66 0 1 C-2.97 1 -5.94 1 -9 1 C-9 2.65 -9 4.3 -9 6 C-7.02 6.99 -5.04 7.98 -3 9 C-3.66 9.66 -4.32 10.32 -5 11 C-10.875 7.125 -10.875 7.125 -12 6 C-12.04063832 4.33382885 -12.042721 2.66611905 -12 1 C-8.00439392 -1.83022097 -4.57262677 -0.76210446 0 0 Z " fill="#957F74" transform="translate(269,494)"/>
<path d="M0 0 C1.91635217 -0.05423638 3.83314925 -0.09289963 5.75 -0.125 C7.35101562 -0.15980469 7.35101562 -0.15980469 8.984375 -0.1953125 C11.99364381 -0.00041167 13.42391548 0.55913917 16 2 C18.32495277 2.38749213 20.65851268 2.72982839 23 3 C23 3.33 23 3.66 23 4 C14.84524526 4.433422 7.82316305 3.29370226 0 1 C0 0.67 0 0.34 0 0 Z " fill="#A48374" transform="translate(690,652)"/>
<path d="M0 0 C1.32 0.33 2.64 0.66 4 1 C3.57847656 1.44730469 3.15695312 1.89460937 2.72265625 2.35546875 C-1.5377979 6.98399766 -1.5377979 6.98399766 -3 13 C-3.66 12.67 -4.32 12.34 -5 12 C-4.58525633 6.71201818 -3.64775386 3.88309282 0 0 Z " fill="#9D7F6F" transform="translate(550,592)"/>
<path d="M0 0 C0.99 0.33 1.98 0.66 3 1 C2.54738642 2.43931117 2.08767021 3.87638999 1.625 5.3125 C1.36976563 6.11300781 1.11453125 6.91351562 0.8515625 7.73828125 C0 10 0 10 -2 13 C-2.99 12.34 -3.98 11.68 -5 11 C-3.35 7.37 -1.7 3.74 0 0 Z " fill="#9F8375" transform="translate(199,612)"/>
<path d="M0 0 C0.66 0.66 1.32 1.32 2 2 C2.66 1.67 3.32 1.34 4 1 C4.99 1.66 5.98 2.32 7 3 C5.35 6.3 3.7 9.6 2 13 C1.07461831 9.29847322 0.91825838 8.36541838 2 5 C0.68 5 -0.64 5 -2 5 C-1.34 3.35 -0.68 1.7 0 0 Z " fill="#9D7E6E" transform="translate(542,546)"/>
<path d="M0 0 C0 0.66 0 1.32 0 2 C-8.19256018 3.45295405 -8.19256018 3.45295405 -11.5625 1.5625 C-12.036875 1.046875 -12.51125 0.53125 -13 0 C-8.52745503 -1.49084832 -4.47254497 -1.49084832 0 0 Z " fill="#997057" transform="translate(468,681)"/>
<path d="M0 0 C6.75 0.75 6.75 0.75 9 3 C8.75 6.0625 8.75 6.0625 8 9 C7.01 9.495 7.01 9.495 6 10 C6 9.34 6 8.68 6 8 C5.34 8 4.68 8 4 8 C4 5.69 4 3.38 4 1 C2.68 0.67 1.36 0.34 0 0 Z " fill="#9F7E70" transform="translate(293,589)"/>
<path d="M0 0 C5.94 0.99 5.94 0.99 12 2 C12 2.33 12 2.66 12 3 C1.605 3.495 1.605 3.495 -9 4 C-9 3.34 -9 2.68 -9 2 C-6.03 2 -3.06 2 0 2 C0 1.34 0 0.68 0 0 Z " fill="#A08474" transform="translate(657,657)"/>
<path d="M0 0 C0.66 1.32 1.32 2.64 2 4 C0.71186658 4.83878455 -0.58063256 5.67086783 -1.875 6.5 C-2.59429687 6.9640625 -3.31359375 7.428125 -4.0546875 7.90625 C-6 9 -6 9 -8 9 C-7.61479436 6.46089803 -7.29902057 5.27248877 -5.37109375 3.515625 C-4.73300781 3.09796875 -4.09492188 2.6803125 -3.4375 2.25 C-2.79683594 1.82203125 -2.15617187 1.3940625 -1.49609375 0.953125 C-1.00238281 0.63859375 -0.50867188 0.3240625 0 0 Z " fill="#9C7C6E" transform="translate(427,473)"/>
<path d="M0 0 C0 0.66 0 1.32 0 2 C-6.07027358 4.1583195 -11.59370576 4.20852314 -18 4 C-18 3.67 -18 3.34 -18 3 C-15.75113762 2.49490792 -13.50086131 1.99610821 -11.25 1.5 C-9.37054688 1.08234375 -9.37054688 1.08234375 -7.453125 0.65625 C-4 0 -4 0 0 0 Z " fill="#9E8073" transform="translate(290,709)"/>
<path d="M0 0 C3.29159316 -0.05790353 6.58305603 -0.09356261 9.875 -0.125 C10.81214844 -0.14175781 11.74929688 -0.15851562 12.71484375 -0.17578125 C13.61074219 -0.18222656 14.50664063 -0.18867187 15.4296875 -0.1953125 C16.25710449 -0.20578613 17.08452148 -0.21625977 17.93701172 -0.22705078 C20 0 20 0 22 2 C19.36 2.33 16.72 2.66 14 3 C14 2.34 14 1.68 14 1 C9.38 1 4.76 1 0 1 C0 0.67 0 0.34 0 0 Z " fill="#A18071" transform="translate(651,655)"/>
<path d="M0 0 C0.66 0.33 1.32 0.66 2 1 C0.64978174 5.41889613 -1.26115668 7.34345343 -5 10 C-5 9.34 -5 8.68 -5 8 C-5.99 7.67 -6.98 7.34 -8 7 C-5.36 4.69 -2.72 2.38 0 0 Z " fill="#A08372" transform="translate(393,579)"/>
<path d="M0 0 C0.66 0 1.32 0 2 0 C1.67 2.31 1.34 4.62 1 7 C2.32 6.67 3.64 6.34 5 6 C5 6.66 5 7.32 5 8 C6.65 8.33 8.3 8.66 10 9 C10 9.33 10 9.66 10 10 C7.03 10 4.06 10 1 10 C-1.17766075 5.64467851 -1.03039555 4.53374042 0 0 Z " fill="#9E7F6D" transform="translate(252,578)"/>
<path d="M0 0 C1.98 0 3.96 0 6 0 C5.67 0.66 5.34 1.32 5 2 C7.97 2.33 10.94 2.66 14 3 C14 3.33 14 3.66 14 4 C9.05 4 4.1 4 -1 4 C-0.67 2.68 -0.34 1.36 0 0 Z " fill="#976F57" transform="translate(399,689)"/>
<path d="M0 0 C1.67542976 0.28604898 3.34385343 0.61781233 5 1 C5 1.66 5 2.32 5 3 C4.34 3 3.68 3 3 3 C2.67 7.29 2.34 11.58 2 16 C1.67 16 1.34 16 1 16 C0.93941406 15.16855469 0.87882813 14.33710937 0.81640625 13.48046875 C0.73261719 12.39378906 0.64882813 11.30710937 0.5625 10.1875 C0.48128906 9.10855469 0.40007813 8.02960937 0.31640625 6.91796875 C0.09787539 3.94010095 0.09787539 3.94010095 -1 1 C-0.67 0.67 -0.34 0.34 0 0 Z " fill="#9A6F56" transform="translate(719,515)"/>
<path d="M0 0 C4.62 0 9.24 0 14 0 C14 0.66 14 1.32 14 2 C15.65 2 17.3 2 19 2 C19 2.33 19 2.66 19 3 C17.35425434 3.02688151 15.70838587 3.04634123 14.0625 3.0625 C13.14597656 3.07410156 12.22945312 3.08570313 11.28515625 3.09765625 C9 3 9 3 8 2 C6.65252916 1.76924918 5.29622435 1.58846937 3.9375 1.4375 C2.638125 1.293125 1.33875 1.14875 0 1 C0 0.67 0 0.34 0 0 Z " fill="#8F6851" transform="translate(651,656)"/>
<path d="M0 0 C1.49080078 0.02707031 1.49080078 0.02707031 3.01171875 0.0546875 C3.77097656 0.07789063 4.53023438 0.10109375 5.3125 0.125 C0.63274725 2.52539042 -3.36054271 4.125 -8.6875 4.125 C-8.6875 3.465 -8.6875 2.805 -8.6875 2.125 C-5.26655758 -0.15562828 -4.00562778 -0.09425007 0 0 Z " fill="#9B7E74" transform="translate(268.6875,523.875)"/>
<path d="M0 0 C0 0.66 0 1.32 0 2 C-11.52164009 3.33257403 -11.52164009 3.33257403 -17 2 C-17 1.67 -17 1.34 -17 1 C-11.29014022 0.25983299 -5.75813575 -0.10469338 0 0 Z " fill="#A68A7E" transform="translate(630,658)"/>
<path d="M0 0 C0 0.66 0 1.32 0 2 C-3.30994713 3.65497356 -6.99123 3.10084335 -10.625 3.0625 C-11.42679688 3.05798828 -12.22859375 3.05347656 -13.0546875 3.04882812 C-15.03649006 3.03703168 -17.01825433 3.01909605 -19 3 C-19 2.67 -19 2.34 -19 2 C-18.16855469 1.93941406 -17.33710937 1.87882813 -16.48046875 1.81640625 C-14.85044922 1.69072266 -14.85044922 1.69072266 -13.1875 1.5625 C-12.10855469 1.48128906 -11.02960937 1.40007813 -9.91796875 1.31640625 C-6.3554455 0.93010855 -3.65278001 0 0 0 Z " fill="#A88F81" transform="translate(788,650)"/>
<path d="M0 0 C2 2 2 2 2 4 C-0.31 4.33 -2.62 4.66 -5 5 C-5.33 4.01 -5.66 3.02 -6 2 C-3 0 -3 0 0 0 Z " fill="#9E8478" transform="translate(291,555)"/>
<path d="M0 0 C1.77007714 -0.08114106 3.54122098 -0.13925505 5.3125 -0.1875 C6.29863281 -0.22230469 7.28476562 -0.25710938 8.30078125 -0.29296875 C11 0 11 0 12.85546875 1.38671875 C14 3 14 3 14 5 C13.01 4.67 12.02 4.34 11 4 C11 3.34 11 2.68 11 2 C10.06027344 2.03480469 10.06027344 2.03480469 9.1015625 2.0703125 C7.87566406 2.09738281 7.87566406 2.09738281 6.625 2.125 C5.81289063 2.14820313 5.00078125 2.17140625 4.1640625 2.1953125 C2 2 2 2 0 0 Z " fill="#9B7C6B" transform="translate(422,523)"/>
<path d="M0 0 C0.66 0.66 1.32 1.32 2 2 C1.9375 3.875 1.9375 3.875 1 6 C-1.5625 8.25 -1.5625 8.25 -4 10 C-3.43454163 6.04179141 -2.19097652 3.3340947 0 0 Z " fill="#9E7A69" transform="translate(226,665)"/>
<path d="M0 0 C3.125 0.375 3.125 0.375 6 1 C6.33 1.99 6.66 2.98 7 4 C6.34 4.66 5.68 5.32 5 6 C4.67 5.01 4.34 4.02 4 3 C2.68 3 1.36 3 0 3 C-0.33 5.31 -0.66 7.62 -1 10 C-1.33 10 -1.66 10 -2 10 C-2.1953125 3.9453125 -2.1953125 3.9453125 -2 2 C-1.34 1.34 -0.68 0.68 0 0 Z " fill="#9A7E6F" transform="translate(663,549)"/>
<path d="M0 0 C9.41002278 -0.3690205 9.41002278 -0.3690205 14 2 C13.67 2.99 13.34 3.98 13 5 C11.35 4.67 9.7 4.34 8 4 C8 3.34 8 2.68 8 2 C5.36 1.67 2.72 1.34 0 1 C0 0.67 0 0.34 0 0 Z " fill="#A47F71" transform="translate(477,676)"/>
<path d="M0 0 C3.41021743 0.78697325 6.68885166 1.87119943 10 3 C8.68 3.33 7.36 3.66 6 4 C6 4.66 6 5.32 6 6 C5.01 6 4.02 6 3 6 C2.67 4.68 2.34 3.36 2 2 C1.34 2 0.68 2 0 2 C0 1.34 0 0.68 0 0 Z " fill="#A08372" transform="translate(557,619)"/>
<path d="M0 0 C0.66 0 1.32 0 2 0 C1.67 5.28 1.34 10.56 1 16 C0.67 16 0.34 16 0 16 C-0.1958009 14.08416353 -0.38132214 12.16727461 -0.5625 10.25 C-0.66691406 9.18265625 -0.77132812 8.1153125 -0.87890625 7.015625 C-0.98560074 4.35858796 -0.81930395 2.50039428 0 0 Z " fill="#A28774" transform="translate(533,584)"/>
<path d="M0 0 C0.66 0.66 1.32 1.32 2 2 C1.45652174 8.08695652 1.45652174 8.08695652 0 11 C-0.66 11 -1.32 11 -2 11 C-1.85957123 9.35369672 -1.71250671 7.70795821 -1.5625 6.0625 C-1.48128906 5.14597656 -1.40007812 4.22945312 -1.31640625 3.28515625 C-1 1 -1 1 0 0 Z " fill="#9F7D6A" transform="translate(415,601)"/>
<path d="M0 0 C-0.33 0.99 -0.66 1.98 -1 3 C-3.5625 4.1875 -3.5625 4.1875 -6 5 C-6 4.34 -6 3.68 -6 3 C-6.99 3.33 -7.98 3.66 -9 4 C-9.66 3.34 -10.32 2.68 -11 2 C-3.375 0 -3.375 0 0 0 Z " fill="#9F806E" transform="translate(216,726)"/>
<path d="M0 0 C3.3 0.33 6.6 0.66 10 1 C6.32326162 2.83836919 2.95007553 3.93651813 -1 5 C-0.67 3.35 -0.34 1.7 0 0 Z " fill="#9E816D" transform="translate(552,600)"/>
<path d="M0 0 C0.33 0 0.66 0 1 0 C1.36871508 4.54748603 1.36871508 4.54748603 -0.375 6.6875 C-0.91125 7.120625 -1.4475 7.55375 -2 8 C-2.66 8.66 -3.32 9.32 -4 10 C-4.66 9.67 -5.32 9.34 -6 9 C-5.1875 7.0625 -5.1875 7.0625 -4 5 C-3.01 4.67 -2.02 4.34 -1 4 C-0.26676204 1.98491642 -0.26676204 1.98491642 0 0 Z " fill="#98806F" transform="translate(733,568)"/>
<path d="M0 0 C0 0.99 0 1.98 0 3 C-2.31 3.33 -4.62 3.66 -7 4 C-7.33 3.01 -7.66 2.02 -8 1 C-5.10765685 0.17361624 -3.11257569 0 0 0 Z " fill="#9C7A67" transform="translate(237,721)"/>
<path d="M0 0 C1.65 0 3.3 0 5 0 C4.34 1.65 3.68 3.3 3 5 C1.35 5 -0.3 5 -2 5 C-1.34 3.35 -0.68 1.7 0 0 Z " fill="#9C6F5A" transform="translate(316,704)"/>
<path d="M0 0 C1.60031344 3.20062687 0.03173691 5.72271806 -1 9 C-3.62386487 5.93882432 -4 5.26826873 -4 1 C-2.68 0.67 -1.36 0.34 0 0 Z " fill="#997058" transform="translate(544,550)"/>
<path d="M0 0 C1.98 0.495 1.98 0.495 4 1 C4 2.65 4 4.3 4 6 C2.35 5.67 0.7 5.34 -1 5 C-0.67 3.35 -0.34 1.7 0 0 Z " fill="#956C54" transform="translate(341,699)"/>
<path d="M0 0 C0.33 0 0.66 0 1 0 C1 3.3 1 6.6 1 10 C0.34 10 -0.32 10 -1 10 C-1.33 10.66 -1.66 11.32 -2 12 C-2 9.69 -2 7.38 -2 5 C-1.34 5 -0.68 5 0 5 C0 3.35 0 1.7 0 0 Z " fill="#956A56" transform="translate(220,600)"/>
<path d="M0 0 C1.125 1.75 1.125 1.75 2 4 C1.125 6.25 1.125 6.25 0 8 C-0.66 8 -1.32 8 -2 8 C-2.33 6.35 -2.66 4.7 -3 3 C-2.34 3 -1.68 3 -1 3 C-0.67 2.01 -0.34 1.02 0 0 Z " fill="#A0806E" transform="translate(711,580)"/>
<path d="M0 0 C0.99 0.66 1.98 1.32 3 2 C2.01 3.32 1.02 4.64 0 6 C-1.65 5.67 -3.3 5.34 -5 5 C-3.35 3.35 -1.7 1.7 0 0 Z " fill="#9F7A6B" transform="translate(403,550)"/>
<path d="M0 0 C1.98 0 3.96 0 6 0 C6 0.99 6 1.98 6 3 C3.36 3.66 0.72 4.32 -2 5 C-2 4.34 -2 3.68 -2 3 C-1.34 3 -0.68 3 0 3 C0 2.01 0 1.02 0 0 Z " fill="#A17D6C" transform="translate(512,548)"/>
<path d="M0 0 C0 0.66 0 1.32 0 2 C-3.3 2.66 -6.6 3.32 -10 4 C-10 3.34 -10 2.68 -10 2 C-3.375 0 -3.375 0 0 0 Z " fill="#9C806E" transform="translate(219,733)"/>
<path d="M0 0 C2.97 0 5.94 0 9 0 C9 0.99 9 1.98 9 3 C6.03 2.67 3.06 2.34 0 2 C0 1.34 0 0.68 0 0 Z " fill="#996D53" transform="translate(559,666)"/>
<path d="M0 0 C0.66 0.33 1.32 0.66 2 1 C-1.96 4.465 -1.96 4.465 -6 8 C-6.66 7.67 -7.32 7.34 -8 7 C-6.71034824 5.62437146 -5.37310707 4.29233607 -4 3 C-3.34 3 -2.68 3 -2 3 C-2 2.34 -2 1.68 -2 1 C-1.34 0.67 -0.68 0.34 0 0 Z " fill="#95786A" transform="translate(159,570)"/>
<path d="M0 0 C1.65 0.33 3.3 0.66 5 1 C5 2.32 5 3.64 5 5 C3.68 5 2.36 5 1 5 C1 4.34 1 3.68 1 3 C0.34 2.67 -0.32 2.34 -1 2 C-0.67 1.34 -0.34 0.68 0 0 Z " fill="#986F58" transform="translate(272,713)"/>
<path d="M0 0 C0.66 0.33 1.32 0.66 2 1 C1.6875 2.875 1.6875 2.875 1 5 C0.01 5.66 -0.98 6.32 -2 7 C-2.6875 5.1875 -2.6875 5.1875 -3 3 C-1.5625 1.25 -1.5625 1.25 0 0 Z " fill="#9F7A68" transform="translate(226,685)"/>
<path d="M0 0 C-2.31 0 -4.62 0 -7 0 C-7 0.66 -7 1.32 -7 2 C-8.98 2 -10.96 2 -13 2 C-12.01 1.67 -11.02 1.34 -10 1 C-10 0.34 -10 -0.32 -10 -1 C-5.92224809 -1.9267618 -3.57818963 -2.33958553 0 0 Z " fill="#966E5B" transform="translate(562,670)"/>
<path d="M0 0 C0.33 0 0.66 0 1 0 C1.33 1.98 1.66 3.96 2 6 C-0.31 7.32 -2.62 8.64 -5 10 C-5.66 9.34 -6.32 8.68 -7 8 C-4.69 7.34 -2.38 6.68 0 6 C0 4.02 0 2.04 0 0 Z " fill="#A68D80" transform="translate(711,539)"/>
<path d="M0 0 C-2.91765 1.9451 -4.62537285 2.45276317 -8 3 C-8 2.34 -8 1.68 -8 1 C-9.32 0.67 -10.64 0.34 -12 0 C-7.74433453 -1.16063604 -4.3164922 -0.76173392 0 0 Z " fill="#A1897E" transform="translate(751,534)"/>
<path d="M0 0 C3.37462715 0.54723683 5.08235 1.0549 8 3 C4.7 3 1.4 3 -2 3 C-1.34 2.01 -0.68 1.02 0 0 Z " fill="#956C56" transform="translate(267,521)"/>
<path d="M0 0 C1.32 0.33 2.64 0.66 4 1 C1.47043472 4.0916909 -1.22454612 4.90931332 -5 6 C-3.35 4.02 -1.7 2.04 0 0 Z " fill="#9E8271" transform="translate(411,516)"/>
<path d="M0 0 C2.64 0 5.28 0 8 0 C8 0.99 8 1.98 8 3 C6.35 3 4.7 3 3 3 C3 2.34 3 1.68 3 1 C2.01 0.67 1.02 0.34 0 0 Z " fill="#956D59" transform="translate(477,677)"/>
<path d="M0 0 C0.33 0 0.66 0 1 0 C1.33 3.3 1.66 6.6 2 10 C1.01 9.34 0.02 8.68 -1 8 C-1.25 4.4375 -1.25 4.4375 -1 1 C-0.67 0.67 -0.34 0.34 0 0 Z " fill="#A37D68" transform="translate(214,645)"/>
<path d="M0 0 C3.3 0.33 6.6 0.66 10 1 C6.00889681 2.9955516 4.30013434 3.19546065 0 3 C0 2.01 0 1.02 0 0 Z " fill="#A3806D" transform="translate(710,612)"/>
<path d="M0 0 C1.65 0 3.3 0 5 0 C5 0.66 5 1.32 5 2 C5.66 2.66 6.32 3.32 7 4 C4.69 4 2.38 4 0 4 C0 2.68 0 1.36 0 0 Z " fill="#A48270" transform="translate(532,671)"/>
<path d="M0 0 C0.66 0 1.32 0 2 0 C2.20140476 3.62528568 1.85776765 5.86501708 0 9 C-0.66 9 -1.32 9 -2 9 C-1.34 6.03 -0.68 3.06 0 0 Z " fill="#9F7D73" transform="translate(580,594)"/>
<path d="M0 0 C1.32 0.33 2.64 0.66 4 1 C3.01 2.485 3.01 2.485 2 4 C-0.625 4.1875 -0.625 4.1875 -3 4 C-2.01 2.68 -1.02 1.36 0 0 Z " fill="#997258" transform="translate(489,559)"/>
<path d="M0 0 C0.99 0.33 1.98 0.66 3 1 C2.67 1.99 2.34 2.98 2 4 C-0.97 3.505 -0.97 3.505 -4 3 C-2.1875 1.4375 -2.1875 1.4375 0 0 Z " fill="#A4806D" transform="translate(401,585)"/>
<path d="M0 0 C0 3 0 3 -1 6 C-2.65 6.33 -4.3 6.66 -6 7 C-4.02 4.69 -2.04 2.38 0 0 Z " fill="#9C8270" transform="translate(171,557)"/>
<path d="M0 0 C0.99 0 1.98 0 3 0 C2.67 1.32 2.34 2.64 2 4 C1.01 4 0.02 4 -1 4 C-1.33 4.66 -1.66 5.32 -2 6 C-2 3 -2 3 0 0 Z " fill="#95735E" transform="translate(405,493)"/>
</svg>
